<?xml version="1.0" encoding="utf-8"?>
<!-- Generator: Adobe Illustrator 24.3.0, SVG Export Plug-In . SVG Version: 6.00 Build 0)  -->
<svg version="1.1" xmlns="http://www.w3.org/2000/svg" xmlns:xlink="http://www.w3.org/1999/xlink" x="0px" y="0px"
	 viewBox="0 0 1920 1080" style="enable-background:new 0 0 1920 1080;" xml:space="preserve">
<style type="text/css">
	.st0{fill:#4DAFCE;}
	.st1{clip-path:url(#SVGID_2_);}
	.st2{opacity:0.16;}
	.st3{fill:#DFF2F7;}
	.st4{opacity:0.16;fill:#DFF2F7;}
	.st5{fill:#F9F0D1;}
	.st6{fill:#B64AC6;}
	.st7{fill:#EFD80C;}
	.st8{fill:#F18FF9;}
</style>
<g id="background">
	<rect x="420" y="-420" transform="matrix(1.346932e-10 -1 1 1.346932e-10 420 1500)" class="st0" width="1080" height="1920"/>
</g>
<g id="shapes">
	<g>
		<defs>
			<rect id="SVGID_1_" x="420" y="-420" transform="matrix(1.346932e-10 -1 1 1.346932e-10 420 1500)" width="1080" height="1920"/>
		</defs>
		<clipPath id="SVGID_2_">
			<use xlink:href="#SVGID_1_"  style="overflow:visible;"/>
		</clipPath>
		<g class="st1">
			<g>
				<g class="st2">
					<circle class="st3" cx="601.24" cy="91.1" r="148.19"/>
				</g>
				<path class="st4" d="M724.1,112.98c-2.7,22.8-16.42,45.35-32.62,61.2c-17.18,16.8-37.67,27.99-61.28,32.61
					c-8.32,1.63-17.14-6.64-17.47-14.72c-0.39-9.53,5.8-15.73,14.72-17.47c3.67-0.72-2.89,0.79,0.44-0.07
					c1.16-0.3,2.31-0.59,3.46-0.92c2.29-0.66,4.55-1.41,6.78-2.24c2.04-0.76,4.06-1.6,6.05-2.5c1.08-0.49,2.14-1.04,3.22-1.54
					c1.82-0.83-2.67,1.55-0.02,0.01c4.14-2.4,8.17-4.91,12-7.8c1.75-1.32,3.46-2.7,5.13-4.12c0.36-0.31,3.31-3.04,1.61-1.39
					c-1.71,1.65,1.18-1.18,1.51-1.51c3.25-3.25,6.3-6.71,9.12-10.35c1.47-1.9,2.84-3.87,4.22-5.83c1.75-2.48-0.95,1.65,0.04-0.05
					c0.6-1.04,1.25-2.05,1.84-3.09c2.42-4.21,4.57-8.59,6.37-13.1c0.5-1.26,0.97-2.54,1.41-3.82c-0.92,2.68-0.05-0.01,0.25-1.21
					c0.67-2.63,1.13-5.29,1.45-7.99c1-8.4,10.72-14.81,18.84-12.93C720.16,96.22,725.17,103.97,724.1,112.98L724.1,112.98z"/>
				<circle class="st4" cx="578.89" cy="196.49" r="14.69"/>
			</g>
			<g>
				<g>
					<path class="st5" d="M944.56,874.67c8.44-9.87,2.21-26-3.49-35.62c-6.14-10.38-15.09-19.57-23.68-27.95
						c-9.38-9.14-19.6-17.48-30.45-24.8c-5.64-3.8-11.82-7.09-16.73-11.85c-0.95-0.92-1.91-1.86-2.69-2.92
						c-0.02-0.03-0.04-0.06-0.07-0.09c0.12-0.82,0.07-1.77,0.32-2.56c3.65-11.06,18.6-10.77,27.98-10.59
						c22.06,0.42,49.86-2.53,60.57-25.26c5.11-10.83,3.2-23.64-1.28-34.36c-4.14-9.91-11.3-18.14-22.46-19.33
						c-21.47-2.27-35.97,17.79-53.16,26.72c-4.69,2.44-9.86,4.28-15.18,4.5c-2.43,0.1-5.39-0.17-8.06-1.04
						c-0.22-0.42-0.48-0.86-0.76-1.25c-0.01-0.02-0.03-0.05-0.05-0.07c-0.22-0.15-0.69-0.5-0.98-1.15
						c-0.45-1.02-0.06-1.96,0.01-2.14l-0.01,0c0.11-0.18,0.21-0.36,0.32-0.54c3.07-5.23,7.17-9.8,10.38-14.95
						c6.28-10.07,11.19-21.32,13.51-32.98c2.42-12.26,0.78-25.11-4.34-36.49c-4.34-9.66-11.92-19.41-22.98-21.3
						c-9.76-1.67-18.65,3.05-25.05,10.19c-7.48,8.34-10.25,19.73-11.56,30.58c-1.54,12.72-1.98,25.63-2.86,38.41
						c-0.46,6.68-0.86,13.37-1.38,20.04c-0.44,5.6-1.05,11.34-3.34,16.52c-4.83,10.88-15.62,15.86-26.6,10.62
						c-10.78-5.14-16.76-16.45-25.69-23.94c-14.9-12.5-37.16-19.63-55.44-10.08c-7.88,4.12-14.6,11.01-18.33,19.1
						c-4.61,10.02-4.07,21.08-0.77,31.42c3.57,11.19,10.17,20.81,20.01,27.33c8.86,5.87,19.3,8.75,29.83,9.42
						c11.83,0.75,23.62-0.96,35.31-2.52c5.69-0.77,11.39-1.57,17.11-1.93c0.65-0.04,1.31-0.08,1.97-0.09
						c-2.24,2.59-4.91,4.89-7.32,7.23c-4.93,4.78-9.85,9.55-14.78,14.33c-8.74,8.48-19.26,16.78-25.19,27.6
						c-6.29,11.44-4.53,25.39,1.24,36.72c2.49,4.9,6.17,9.56,11.48,11.51c4.59,1.68,9.79,1.45,14.38-0.09
						c11.8-3.96,19.21-15.86,26.38-25.26c4.21-5.51,8.42-11.03,12.63-16.54c4.02-5.27,7.96-10.74,12.77-15.32
						c7.8-7.42,19.67-13.12,30.27-8.24c10.94,5.05,13.95,17,18.23,27.16c9.35,22.22,27.4,42.23,51.54,48.19
						C926.02,883.51,937.45,882.99,944.56,874.67z M867.27,772.18C867.53,773.08,867.22,772.52,867.27,772.18L867.27,772.18z
						 M935.08,860.75c-8.46,6.12-19.78,4.69-28.99,1.29c-10.9-4.03-20.66-10.78-28.35-19.48c-3.66-4.14-6.83-8.77-9.17-13.79
						c-2.44-5.26-4.23-10.81-6.61-16.1c-4.56-10.14-11.37-22.04-22.86-25.31c-10.33-2.94-20.69,1.78-28.23,8.73
						c-9.3,8.56-16.46,19.58-24.1,29.59c-7.29,9.54-14.48,22-25.89,27.07c-4.38,1.94-9.6,2.9-14.28,1.48
						c-2.09-0.64-4.14-1.67-5.69-3.23c-0.04-0.04-0.15-0.15-0.29-0.3c-0.02,0.27-0.02,0.54-0.03,0.81
						c-0.04,2.43-0.05,0.01-0.41-1.29c-0.31-0.36-0.58-0.71-0.47-0.72c0.2-0.02,0.36,0.29,0.47,0.72c0.15,0.16,0.31,0.34,0.44,0.48
						c0.53-10.93,8.44-19.42,15.9-26.76c9.22-9.07,18.57-18.02,27.85-27.02c3.6-3.5,7.73-6.89,10.07-11.42
						c2.64-5.11,1.77-10.8,0.08-16.09c-1.93-6.03-5.19-11.92-11.93-12.86c-5.25-0.74-10.82,0.28-16.05,0.91
						c-21.48,2.62-44.32,7.53-64.7-2.48c-4.54-2.24-8.81-5.07-12.33-8.73c-1.5-1.56-2.75-3.21-3.92-5.02
						c-0.07-0.11-0.15-0.23-0.21-0.34c0,0-0.01-0.01-0.01-0.02c-0.01-0.01-0.02-0.02-0.02-0.03c-0.01-0.02-0.04-0.06-0.06-0.11
						c-0.01-0.01-0.01-0.01-0.01-0.02c-0.03-0.06-0.06-0.11-0.08-0.15c-0.01-0.01-0.01-0.01-0.02-0.03c0-0.01,0-0.01-0.01-0.01
						c0.01,0.09,0.01,0.14,0.01,0.15c-0.02-0.03-0.04-0.14-0.07-0.27l0-0.01l0,0c-0.02-0.13-0.05-0.28-0.06-0.36
						c0.02,0.04,0.06,0.13,0.09,0.21c-0.87-7.46,2.8-15.84,7.73-21.92c12.54-15.45,33.84-17.38,51.2-9.53
						c10.07,4.56,17.28,11.72,24.48,19.89c6.88,7.79,15.26,15.92,26.34,16.11c11.2,0.19,18.28-10.03,20.86-19.79
						c3.07-11.6,2.76-24.3,3.58-36.21c0.84-12.23,1.2-24.62,2.85-36.78c1.39-10.27,4.52-20.7,12.09-28.16
						c6.69-6.6,16.74-10.31,25.8-6.65c4.3,1.73,8.16,4.77,10.69,8.67c0.07,0.1,0.57,0.9,0.78,1.21c-0.01-0.02-0.01-0.03-0.01-0.04
						c0.02,0.04,0.04,0.07,0.05,0.1c-0.01-0.01-0.02-0.02-0.03-0.04c0.06,0.12,0.15,0.36,0.23,0.55c0-0.03-0.01-0.06-0.01-0.09
						c-0.01-0.02-0.01-0.04-0.02-0.06c-0.11-0.28-0.09-1.01,0.02,0.06c0.08,0.22,0.12,0.33,0.13,0.37
						c-0.01-0.03-0.07-0.14-0.12-0.28c0.2,1.8,0.55,3.89,0.5,5.92c-0.2,10.92-4.49,21.82-9.39,31.41
						c-2.81,5.49-6.09,10.72-9.77,15.67c-3.24,4.36-6.58,8.59-7.89,13.97c-1.49,6.12,0.31,13.1,2.72,18.75
						c0.33,0.77,0.69,1.57,1.09,2.37c0,0.01,0.01,0.03,0.02,0.05c0.78,1.57,1.69,3.13,2.8,4.49c0.04,0.05,0.08,0.1,0.12,0.15
						c0.49,0.56,0.98,1.08,1.5,1.57c6.74,6.44,16.14,7.34,25.24,4.26c10.22-3.46,18.5-10.8,26.97-17.19
						c7.41-5.58,15.7-10.62,25.03-12.06c4.47-0.69,8.96-0.44,13.16,1.33c1.94,0.82,3.77,1.9,5.32,3.33
						c0.65,0.59,1.29,1.24,1.83,1.93c0.06,0.08,0.36,0.55,0.62,0.94c0.01-0.03,0.07,0,0.17,0.16c-0.01-0.07-0.01-0.11-0.01-0.13
						c0,0,0,0,0,0c0,0.04,0.01,0.09,0.01,0.12c0,0,0,0.01,0,0.01c0.02,0.04,0.05,0.09,0.08,0.14c0.09,0.15,0.13,0.24,0.14,0.27
						c-0.02-0.02-0.1-0.14-0.2-0.29l0,0.08c0,0.02,0,0.03,0,0.05c0.04,0.47,0.1,1.18,0.1,1.39c0.06,2.29-0.31,4.66-0.99,6.83
						c-1.61,5.13-4.82,9.84-8.67,13.54c-8.26,7.95-19.5,11.8-30.66,13.29c-11.18,1.5-22.47-0.17-33.61,1.27
						c-10.68,1.38-18.44,7.87-18.18,19.16c0.3,12.78,6.78,25.35,16.72,33.21c5.11,4.05,10.81,7.29,16.17,10.99
						c5.21,3.59,10.26,7.41,15.11,11.47c9.77,8.18,18.8,17.24,26.97,27.02c1.56,1.87,3.11,3.74,4.52,5.73
						c0.57,0.8,1.07,1.63,1.6,2.44c0.05-0.15,0.11-0.29,0.18-0.38c0.06-0.09,0.08-0.13,0.09-0.13c-0.01,0.06-0.1,0.32,0.08,0.63
						c0.54,0.99,0.6,1.28-0.09,0.27c-0.09-0.13-0.17-0.25-0.25-0.38c-0.27,0.79-0.3,2.18-0.56,2.81
						C939.31,856.78,937.4,859.06,935.08,860.75z"/>
					<path class="st5" d="M851.87,720.27c-0.28-0.32-0.56-0.66-0.82-1.01c-0.75-0.99-1.41-2.18-1.97-3.48
						C849.85,717.35,850.77,718.91,851.87,720.27z"/>
					<path class="st5" d="M853.49,721.99c-0.54-0.48-1.04-1.01-1.5-1.57C852.48,720.97,852.97,721.5,853.49,721.99z"/>
					<path class="st5" d="M835.58,747.39"/>
					<path class="st5" d="M838.28,743.97c-5.98-5.16-16-1.79-21.04,3.09c-2.78,2.69-5.1,5.58-5.1,9.64c0,3.43,1.31,7.4,3.3,10.2
						c9.5,13.42,32.86-9.74,24.4-21.55c-2.07-2.89-4.5,1.14-2.87,3.43c2.88,4.02-4.22,11.35-7.06,13.57
						c-3.65,2.85-9.63,5.33-12.26-0.1c-0.94-1.94-1.85-4.48-1.05-6.61c0.8-2.15,3.37-4.4,5.12-5.75c3.38-2.61,11.02-4.59,14.56-1.54
						C838.83,750.54,840.27,745.69,838.28,743.97L838.28,743.97z"/>
				</g>
			</g>
			<g>
				<g>
					<path class="st6" d="M1573.41,422.51c-12.97,1.85-23.49,11.39-29.57,22.55c-2.78,5.1-4.99,11.21-10.99,13.28
						c-5.81,2-11.74-1.62-15.44-5.92c-2.29-2.66-4.06-5.73-5.89-8.71c-1.91-3.11-3.83-6.23-5.75-9.34
						c-3.26-5.3-6.52-11.94-12.5-14.64c-2.33-1.05-5.04-1.45-7.54-0.81c-2.89,0.74-5.07,2.99-6.63,5.43
						c-3.63,5.64-5.28,12.86-2.59,19.19c2.54,5.99,7.62,10.9,11.75,15.81c2.33,2.77,4.66,5.53,6.99,8.3
						c1.14,1.36,2.42,2.7,3.46,4.18c-0.35-0.05-0.69-0.1-1.03-0.15c-2.98-0.5-5.93-1.22-8.87-1.92c-6.05-1.44-12.14-2.96-18.38-3.19
						c-5.56-0.2-11.19,0.75-16.14,3.37c-5.5,2.9-9.47,7.6-11.94,13.28c-2.27,5.25-3.14,11.02-1.25,16.52
						c1.53,4.44,4.69,8.41,8.6,10.99c9.09,5.98,21.13,3.41,29.61-2.35c5.08-3.46,8.81-9.07,14.74-11.2
						c6.04-2.17,11.43,1.01,13.39,6.98c0.93,2.84,0.94,5.88,0.88,8.84c-0.08,3.53-0.22,7.05-0.33,10.58
						c-0.21,6.75-0.67,13.54-0.53,20.29c0.12,5.76,0.97,11.88,4.45,16.65c2.98,4.08,7.39,7.03,12.6,6.66
						c5.9-0.41,10.39-5.12,13.17-9.95c3.29-5.7,4.83-12.35,4.2-18.91c-0.6-6.24-2.58-12.4-5.34-18.01
						c-1.41-2.87-3.32-5.48-4.65-8.39c-0.05-0.1-0.09-0.2-0.14-0.3l0.01,0c-0.03-0.1-0.18-0.61,0.11-1.12
						c0.18-0.32,0.45-0.48,0.57-0.55c0.01-0.01,0.02-0.02,0.03-0.04c0.17-0.19,0.33-0.41,0.47-0.61c1.45-0.32,3.02-0.3,4.28-0.12
						c2.78,0.4,5.4,1.64,7.72,3.16c8.54,5.59,15.08,16.88,26.46,16.82c5.91-0.03,10.11-3.97,12.8-8.95c2.92-5.38,4.6-12,2.49-17.95
						c-4.42-12.48-18.84-15.5-30.43-16.44c-4.93-0.4-12.79-1.04-14.11-7.03c-0.09-0.43-0.01-0.92-0.03-1.36
						c0.02-0.01,0.03-0.03,0.04-0.04c0.47-0.51,1.02-0.96,1.57-1.39c2.83-2.24,6.24-3.63,9.4-5.33c6.08-3.27,11.88-7.1,17.28-11.4
						c4.95-3.94,10.12-8.29,13.89-13.41c3.49-4.74,7.62-12.87,3.71-18.49C1584.71,422.63,1578.74,421.75,1573.41,422.51z
						 M1542.05,477.03C1542.04,476.85,1542.23,476.57,1542.05,477.03L1542.05,477.03z M1584.72,437.93c0.1,0.34,0.05,1.07,0.14,1.51
						c0.05-0.06,0.1-0.13,0.15-0.19c0.41-0.49,0.37-0.35,0.03,0.15c-0.11,0.16-0.08,0.3-0.07,0.33c0,0-0.01-0.02-0.04-0.07
						c-0.03-0.05-0.05-0.13-0.07-0.21c-0.32,0.4-0.63,0.81-0.97,1.2c-0.84,0.97-1.76,1.87-2.67,2.77
						c-4.8,4.7-10.01,8.97-15.57,12.75c-2.76,1.87-5.61,3.61-8.53,5.21c-3.01,1.65-6.17,3.06-9.06,4.91
						c-5.62,3.6-9.69,9.85-10.52,16.53c-0.73,5.91,3,9.72,8.52,11.01c5.76,1.34,11.77,1.07,17.56,2.44
						c5.77,1.37,11.46,3.99,15.37,8.59c1.82,2.15,3.26,4.78,3.83,7.56c0.24,1.18,0.31,2.44,0.16,3.64
						c-0.01,0.11-0.08,0.48-0.13,0.72c0,0.01,0,0.02-0.01,0.03l0,0.04c0.06-0.08,0.11-0.13,0.12-0.14
						c-0.01,0.02-0.03,0.06-0.09,0.14c-0.02,0.02-0.03,0.05-0.05,0.07c0,0,0,0.01,0,0.01c0,0.02-0.01,0.04-0.01,0.07c0,0,0,0,0,0
						c0-0.01,0.01-0.03,0.01-0.07c-0.06,0.08-0.09,0.09-0.1,0.07c-0.16,0.19-0.34,0.42-0.37,0.46c-0.32,0.33-0.69,0.64-1.06,0.91
						c-0.89,0.67-1.9,1.13-2.97,1.46c-2.3,0.71-4.67,0.6-6.97,0c-4.81-1.25-8.9-4.33-12.49-7.65c-4.11-3.8-8.06-8.09-13.24-10.44
						c-4.61-2.09-9.59-2.12-13.46,0.9c-0.3,0.23-0.59,0.48-0.87,0.75c-0.02,0.02-0.05,0.04-0.07,0.07c-0.65,0.66-1.21,1.43-1.7,2.21
						c0,0.01-0.01,0.02-0.01,0.02c-0.25,0.4-0.48,0.8-0.7,1.18c-1.56,2.83-2.88,6.4-2.42,9.69c0.4,2.89,1.93,5.28,3.4,7.74
						c1.67,2.79,3.11,5.7,4.3,8.73c2.06,5.29,3.74,11.23,3.27,16.97c-0.09,1.07-0.38,2.15-0.58,3.08c0.04-0.07,0.07-0.12,0.08-0.14
						c-0.01,0.02-0.03,0.08-0.09,0.18c-0.12,0.56-0.09,0.17-0.02,0.03c0.01-0.01,0.01-0.02,0.02-0.03c0-0.02,0.01-0.03,0.01-0.04
						c-0.05,0.1-0.11,0.22-0.15,0.28c0.01-0.01,0.01-0.02,0.02-0.02c-0.01,0.01-0.02,0.03-0.03,0.05c0-0.01,0-0.01,0.01-0.02
						c-0.12,0.15-0.43,0.54-0.47,0.59c-1.53,1.91-3.72,3.3-6.06,3.98c-4.94,1.44-10.02-1.04-13.18-4.85
						c-3.58-4.31-4.67-9.94-4.85-15.4c-0.22-6.46,0.24-12.98,0.45-19.44c0.2-6.29,1.03-12.93,0.04-19.18
						c-0.84-5.25-4.01-10.98-9.89-11.48c-5.82-0.49-10.65,3.33-14.66,7.06c-4.21,3.9-8.37,7.28-13.89,9.14
						c-9.52,3.2-20.59,1.06-26.35-7.7c-2.26-3.45-3.75-8.04-2.9-11.9c-0.02,0.04-0.05,0.08-0.06,0.11c0.01-0.04,0.03-0.12,0.05-0.19
						l0,0l0-0.01c0.02-0.07,0.04-0.13,0.05-0.14c0,0.01,0,0.04-0.01,0.08c0.01,0,0.01,0,0.01,0c0-0.01,0.01-0.01,0.01-0.01
						c0.01-0.02,0.03-0.04,0.05-0.07c0-0.01,0-0.01,0.01-0.01c0.01-0.02,0.03-0.04,0.04-0.05c0-0.01,0.01-0.01,0.01-0.02
						c0-0.01,0-0.01,0.01-0.01c0.04-0.05,0.08-0.11,0.13-0.17c0.71-0.89,1.45-1.69,2.32-2.43c2.04-1.73,4.43-3,6.93-3.93
						c11.22-4.17,22.93-0.39,34.06,2.12c2.71,0.61,5.57,1.44,8.37,1.33c3.59-0.14,5.61-3.06,6.94-6.11
						c1.17-2.68,1.92-5.62,0.81-8.44c-0.99-2.5-2.98-4.5-4.68-6.52c-4.39-5.21-8.82-10.4-13.18-15.64
						c-3.52-4.24-7.22-9.11-6.92-14.87c-0.07,0.07-0.17,0.15-0.26,0.23c-0.08,0.22-0.18,0.37-0.28,0.35
						c-0.06-0.01,0.1-0.18,0.28-0.35c0.26-0.66,0.39-1.93,0.28-0.65c-0.01,0.14-0.02,0.28-0.03,0.43c0.08-0.07,0.15-0.13,0.17-0.14
						c0.9-0.74,2.02-1.17,3.15-1.4c2.53-0.5,5.21,0.28,7.41,1.53c5.71,3.26,8.83,10.17,12.14,15.56
						c3.47,5.65,6.65,11.81,11.07,16.79c3.59,4.04,8.77,7.07,14.34,6.07c6.2-1.11,10.4-6.99,13.33-12.07
						c1.53-2.65,2.76-5.46,4.32-8.09c1.49-2.51,3.4-4.77,5.54-6.75c4.49-4.16,9.97-7.18,15.89-8.72c5.01-1.3,11.02-1.45,15.14,2.21
						C1583.42,435.17,1584.3,436.47,1584.72,437.93z"/>
					<path class="st6" d="M1531.23,503.44c-0.16,0.16-0.33,0.32-0.48,0.49c-0.45,0.48-0.86,1.07-1.22,1.72
						C1530.02,504.86,1530.58,504.09,1531.23,503.44z"/>
					<path class="st6" d="M1532.17,502.62c-0.31,0.22-0.6,0.47-0.87,0.75C1531.59,503.1,1531.87,502.85,1532.17,502.62z"/>
					<path class="st6" d="M1524.12,488.35"/>
					<path class="st6" d="M1525.35,490.29c-3.41,2.39-8.48,0.09-10.87-2.73c-1.32-1.56-2.38-3.2-2.17-5.32
						c0.18-1.8,1.08-3.81,2.27-5.17c5.69-6.53,16.72,6.84,11.66,12.59c-1.24,1.4-2.3-0.84-1.32-1.95c1.72-1.96-1.61-6.18-2.98-7.49
						c-1.76-1.69-4.77-3.3-6.44-0.59c-0.59,0.97-1.21,2.25-0.9,3.41c0.31,1.17,1.53,2.48,2.38,3.29c1.63,1.55,5.53,2.99,7.55,1.58
						C1525.99,486.87,1526.49,489.49,1525.35,490.29L1525.35,490.29z"/>
				</g>
			</g>
			<g>
				<g>
					<path class="st7" d="M1041.24,560.21c38.32-24.02,58.11-68.84,61.64-112.55c1.61-19.99,0.01-42.35,16.04-57.29
						c15.53-14.46,39.28-11.36,56.97-2.98c10.93,5.17,20.84,12.38,30.78,19.19c10.4,7.13,20.82,14.27,31.22,21.4
						c17.73,12.15,37.29,28.5,59.93,28.63c8.81,0.05,17.92-2.5,24.9-8.02c8.07-6.4,11.78-16.54,13.29-26.42
						c3.53-22.86-1.37-47.95-18.73-64.15c-16.41-15.32-39.3-23.69-59.22-33.36c-11.23-5.46-22.45-10.9-33.68-16.36
						c-5.5-2.68-11.41-5.12-16.75-8.33c1.16-0.35,2.32-0.66,3.46-0.96c10.1-2.62,20.4-4.48,30.66-6.39
						c21.09-3.95,42.43-7.7,62.44-15.72c17.81-7.14,34.22-18.07,46.18-33.24c13.29-16.86,19.22-37.24,19.03-58.6
						c-0.19-19.73-5.54-39.15-19.2-53.84c-11.04-11.87-26.57-19.94-42.52-22.58c-37.03-6.11-71.41,18.86-90.05,48.93
						c-11.17,18.02-15.07,40.96-30.76,55.97c-16,15.3-37.47,12.83-52-3.23c-6.92-7.65-11.22-17.22-15.17-26.64
						c-4.7-11.22-9.19-22.56-13.78-33.82c-8.79-21.58-16.88-43.64-26.78-64.74c-8.44-18-19.71-36.11-37.36-46.26
						c-15.11-8.69-33.16-11.79-49.07-3.35c-18.04,9.55-25.58,30.7-27.59,49.86c-2.37,22.58,2.09,45.7,13.25,65.51
						c10.63,18.84,25.52,35.48,42.09,49.3c8.47,7.07,18.16,12.64,26.43,19.93c0.29,0.25,0.57,0.5,0.85,0.75l-0.03,0
						c0.23,0.26,1.43,1.67,1.24,3.68c-0.12,1.28-0.74,2.16-1.03,2.53c-0.03,0.06-0.04,0.11-0.05,0.15
						c-0.27,0.83-0.46,1.74-0.61,2.59c-4.13,3.03-9.09,5.17-13.34,6.38c-9.32,2.64-19.31,2.41-28.79,0.86
						c-34.77-5.66-71.22-32.08-107.02-15.94c-18.6,8.39-26.3,26.7-27.81,46.16c-1.65,21.07,2.33,44.28,17.32,60.09
						c31.43,33.16,81.13,22.46,119,9.19c16.11-5.64,41.77-14.65,54.36,2.38c0.89,1.21,1.34,2.89,2.01,4.23
						c-0.03,0.07-0.05,0.13-0.07,0.2c-0.75,2.27-1.88,4.46-2.99,6.58c-5.78,11.01-14.58,20.2-22.16,29.98
						c-14.58,18.83-27.5,39.04-38.5,60.16c-10.07,19.36-20.3,40.33-25.01,61.75c-4.37,19.86-5.96,51.27,14.22,63.51
						C1005.45,575.68,1025.49,570.08,1041.24,560.21z M1063.69,344.33C1063.96,344.9,1063.74,346.04,1063.69,344.33L1063.69,344.33z
						 M983.96,527.43c-0.8-0.95-1.65-3.32-2.56-4.55c-0.07,0.27-0.14,0.54-0.22,0.8c-0.62,2.13-0.67,1.61-0.31-0.41
						c0.12-0.64-0.18-1.04-0.23-1.13c0.01,0.01,0.07,0.06,0.23,0.18c0.17,0.13,0.35,0.32,0.52,0.56c0.46-1.71,0.86-3.43,1.38-5.13
						c1.3-4.24,2.92-8.35,4.54-12.47c8.54-21.54,19-42.32,31.22-62.02c6.07-9.77,12.63-19.24,19.59-28.4
						c7.17-9.43,15.16-18.28,21.7-28.18c12.69-19.22,16.75-44.63,10-66.88c-5.98-19.66-23.07-26.45-42.31-22.76
						c-20.05,3.85-38.62,13.14-58.78,16.91c-20.13,3.76-41.73,3.51-60.52-5.53c-8.76-4.21-16.98-10.52-22.68-18.47
						c-2.42-3.38-4.4-7.26-5.6-11.24c-0.11-0.36-0.42-1.63-0.62-2.46c-0.01-0.03-0.01-0.06-0.02-0.09l-0.04-0.13
						c-0.08,0.32-0.15,0.56-0.18,0.61c-0.01-0.07,0.02-0.24,0.08-0.55c0.02-0.1,0.04-0.2,0.05-0.28c0.01-0.01-0.01-0.02,0-0.03
						c-0.02-0.07-0.04-0.14-0.06-0.22c0.01-0.01,0.01-0.01,0.01-0.01c0.01,0.03,0.03,0.11,0.05,0.23c0.09-0.33,0.16-0.41,0.21-0.37
						c0.23-0.82,0.48-1.8,0.53-1.97c0.55-1.49,1.28-2.98,2.06-4.37c1.86-3.35,4.41-6.25,7.3-8.77c6.25-5.45,13.87-8.43,21.98-9.78
						c16.93-2.81,34.13,1.18,50.09,6.61c18.28,6.22,36.75,14.2,56.37,14.36c17.47,0.14,33.19-6.77,41.18-21.72
						c0.62-1.14,1.18-2.32,1.7-3.57c0.05-0.1,0.09-0.2,0.13-0.32c1.13-2.98,1.82-6.19,2.28-9.34c0-0.03,0.01-0.07,0.01-0.09
						c0.24-1.6,0.41-3.19,0.54-4.71c0.96-11.13,0.1-24.2-5.96-33.94c-5.32-8.55-13.49-13.96-21.57-19.65
						c-9.17-6.45-17.81-13.62-25.79-21.51c-13.93-13.79-27.54-30.17-34.09-48.93c-1.22-3.49-1.82-7.29-2.5-10.52
						c-0.02,0.27-0.05,0.49-0.05,0.55c0.01-0.07,0-0.29,0.02-0.71c-0.41-1.93,0.03-0.67,0.01-0.12c-0.01,0.04,0,0.08-0.01,0.12
						c0.02,0.05,0.02,0.09,0.03,0.15c0.02-0.38,0.05-0.85,0.08-1.08c-0.01,0.04-0.02,0.07-0.03,0.09c0-0.06,0.02-0.12,0.03-0.2
						c0.01,0.02,0.01,0.04,0,0.08c0.18-0.64,0.6-2.32,0.66-2.53c2.15-8.18,7.09-15.62,13.53-21.06
						c13.57-11.47,33.04-10.77,48.35-3.18c17.33,8.58,28.66,24.81,36.9,41.76c9.76,20.07,17.42,41.26,25.83,61.91
						c8.18,20.11,14.88,42.22,26.77,60.52c10.01,15.38,28.06,29.01,47.29,22.32c19.04-6.62,28.9-25.44,36.35-42.81
						c7.8-18.21,16.18-34.69,30.98-48.28c25.54-23.44,63.43-32.21,93.87-12.65c11.98,7.7,23.09,20.09,25.82,33.47
						c0.02-0.17,0.03-0.33,0.04-0.42c0.02,0.15,0.06,0.41,0.1,0.66l-0.01,0.01l0.01,0.02c0.02,0.24,0.05,0.45,0.04,0.51
						c-0.02-0.02-0.04-0.12-0.07-0.27c-0.02,0.01-0.02,0.01-0.01,0.02c0,0.03-0.01,0.04-0.02,0.06c-0.01,0.08-0.03,0.18-0.05,0.3
						c0.01,0.02,0,0.03-0.01,0.05c-0.01,0.09-0.03,0.17-0.04,0.22c0,0.03-0.01,0.05-0.02,0.07c0.01,0.02,0,0.03-0.01,0.04
						c-0.04,0.23-0.11,0.47-0.17,0.7c-0.98,3.8-2.21,7.35-3.92,10.9c-4,8.33-9.75,15.65-16.33,22.09
						c-29.51,28.88-71.75,33.38-110.36,41.06c-9.39,1.87-19.59,3.29-28.25,7.55c-11.12,5.46-13.4,17.5-13.3,29.01
						c0.08,10.1,1.81,20.42,9.28,27.75c6.62,6.5,15.69,10.01,23.9,14c21.15,10.27,42.39,20.42,63.48,30.84
						c17.06,8.44,35.55,18.61,42.68,37.18c0.14-0.32,0.32-0.71,0.49-1.08c-0.05-0.81,0.04-1.43,0.4-1.51
						c0.2-0.05-0.07,0.71-0.4,1.51c0.12,2.46,1.47,6.64,0.02,2.46c-0.17-0.47-0.32-0.93-0.51-1.38c-0.15,0.34-0.28,0.6-0.33,0.69
						c-1.79,3.59-4.73,6.53-7.99,8.82c-7.27,5.11-16.84,6.41-25.51,5.55c-22.58-2.27-42.09-19.69-60.11-32.04
						c-18.88-12.95-37.51-27.91-58.45-37.42c-16.98-7.71-37.56-9.99-53.73,0.97c-17.99,12.19-23,36.63-25.1,56.73
						c-1.1,10.49-1.05,21.1-2.27,31.57c-1.18,10-4.03,19.79-8,29.03c-8.33,19.4-21.36,36.61-37.89,49.77
						c-13.98,11.12-32.72,20.02-50.82,14.26C991.93,534.31,987.33,531.46,983.96,527.43z"/>
					<path class="st7" d="M1060.77,245.91c0.3-0.72,0.58-1.46,0.85-2.21c0.74-2.13,1.2-4.57,1.43-7.13
						C1062.6,239.71,1061.91,242.93,1060.77,245.91z"/>
					<path class="st7" d="M1058.95,249.8c0.66-1.13,1.22-2.33,1.7-3.57C1060.12,247.47,1059.57,248.66,1058.95,249.8z"/>
					<path class="st7" d="M1104.33,283.5"/>
					<path class="st7" d="M1097.74,279.12c7.4-12.31,26.61-12.19,38.11-6.63c6.34,3.07,11.99,6.74,14.29,13.75
						c1.95,5.93,1.94,13.53,0.1,19.49c-8.79,28.58-62.3,1.86-54.41-23.35c1.93-6.16,8.43-0.58,6.9,4.3
						c-2.69,8.58,13.75,17.21,19.91,19.43c7.93,2.85,19.67,3.73,21.13-7.15c0.52-3.88,0.65-8.8-1.94-12.02
						c-2.61-3.26-8.31-5.68-12.12-7.03c-7.32-2.59-21.64-1.67-26.02,5.62C1100.52,290.8,1095.27,283.22,1097.74,279.12
						L1097.74,279.12z"/>
				</g>
			</g>
			<g>
				<g>
					<path class="st8" d="M1307.15,988.83c3.81-14.82-1.77-30.44-11.09-41.99c-4.26-5.28-9.86-10.4-9.41-17.8
						c0.44-7.17,7-11.94,13.29-14c3.89-1.28,8-1.82,12.03-2.46c4.21-0.67,8.43-1.35,12.65-2.02c7.18-1.15,15.79-1.69,21.38-6.93
						c2.17-2.04,3.82-4.79,4.24-7.77c0.49-3.45-0.96-6.8-2.89-9.58c-4.46-6.43-11.51-11.45-19.54-11.38
						c-7.6,0.06-15.17,3.34-22.31,5.61c-4.03,1.28-8.05,2.55-12.08,3.83c-1.97,0.62-3.99,1.4-6.05,1.86c0.2-0.36,0.42-0.7,0.63-1.04
						c1.87-3,3.96-5.85,6.04-8.71c4.26-5.88,8.62-11.77,11.66-18.41c2.71-5.9,4.19-12.41,3.59-18.92
						c-0.67-7.24-3.96-13.62-8.98-18.82c-4.64-4.8-10.48-8.32-17.26-8.74c-5.47-0.34-11.17,1.3-15.7,4.36
						c-10.51,7.13-13.14,21.27-10.71,32.99c1.45,7.03,5.84,13.57,5.49,20.91c-0.36,7.48-6.21,11.88-13.52,11.32
						c-3.48-0.27-6.77-1.61-9.93-3.01c-3.77-1.66-7.51-3.4-11.26-5.09c-7.19-3.25-14.31-6.78-21.66-9.65
						c-6.27-2.45-13.25-4.27-19.95-2.65c-5.73,1.39-10.89,4.83-12.83,10.61c-2.2,6.55,0.87,13.5,4.84,18.67
						c4.68,6.1,11.16,10.73,18.52,13c7,2.15,14.53,2.77,21.82,2.3c3.73-0.24,7.4-1.13,11.13-1.27c0.13-0.01,0.26-0.01,0.39-0.01
						l-0.01,0.01c0.12,0.01,0.74,0.08,1.16,0.62c0.27,0.34,0.32,0.7,0.34,0.86c0.01,0.02,0.02,0.03,0.02,0.05
						c0.13,0.27,0.29,0.54,0.45,0.78c-0.31,1.71-1.03,3.39-1.79,4.67c-1.67,2.82-4.18,5.09-6.87,6.92
						c-9.85,6.71-24.96,8.72-29.99,21.02c-2.61,6.39-0.24,12.68,3.93,17.81c4.5,5.55,10.89,10.33,18.25,10.71
						c15.44,0.82,25.15-13.39,31.35-25.47c2.64-5.14,6.84-13.33,13.9-12.08c0.5,0.09,1,0.4,1.48,0.57c0.01,0.02,0.02,0.04,0.03,0.07
						c0.34,0.73,0.58,1.53,0.8,2.31c1.15,4.05,1.13,8.36,1.54,12.52c0.81,8.02,2.34,15.99,4.56,23.74
						c2.04,7.1,4.41,14.63,8.25,20.99c3.55,5.89,10.48,13.97,18.29,12.28C1301.97,1000.97,1305.59,994.92,1307.15,988.83z
						 M1262.37,930.6C1262.57,930.68,1262.78,931.01,1262.37,930.6L1262.37,930.6z M1285.46,994.13c-0.42-0.05-1.18-0.43-1.69-0.52
						c0.05,0.08,0.09,0.16,0.13,0.25c0.35,0.67,0.21,0.55-0.17-0.03c-0.12-0.19-0.28-0.21-0.32-0.23c0,0,0.03,0,0.1-0.01
						c0.07-0.01,0.16,0,0.26,0.02c-0.29-0.53-0.59-1.04-0.86-1.58c-0.67-1.34-1.23-2.73-1.79-4.12c-2.92-7.28-5.2-14.82-6.78-22.5
						c-0.78-3.81-1.38-7.67-1.81-11.54c-0.44-3.99-0.54-8.02-1.24-11.97c-1.36-7.68-6.29-14.86-13.13-18.75
						c-6.05-3.43-11.82-1.12-15.69,4.27c-4.03,5.61-6.42,12.22-10.49,17.85c-4.07,5.61-9.43,10.58-16.14,12.74
						c-3.13,1.01-6.62,1.37-9.87,0.75c-1.38-0.26-2.77-0.76-3.99-1.46c-0.11-0.06-0.48-0.3-0.72-0.46
						c-0.01-0.01-0.02-0.01-0.03-0.02l-0.04-0.02c0.06,0.1,0.09,0.17,0.1,0.19c-0.02-0.02-0.05-0.06-0.11-0.15
						c-0.02-0.03-0.04-0.06-0.05-0.08c0,0-0.01,0-0.01-0.01c-0.02-0.01-0.04-0.03-0.07-0.04c0,0,0,0,0,0
						c0.01,0.01,0.03,0.02,0.07,0.05c-0.05-0.1-0.06-0.14-0.03-0.14c-0.14-0.26-0.3-0.55-0.33-0.61c-0.21-0.49-0.38-1.03-0.51-1.55
						c-0.32-1.26-0.37-2.56-0.25-3.86c0.26-2.79,1.44-5.3,3.12-7.52c3.5-4.63,8.65-7.66,13.84-10.05
						c5.94-2.73,12.33-5.08,17.18-9.61c4.32-4.04,6.57-9.39,5.05-14.93c-0.11-0.42-0.25-0.85-0.41-1.27
						c-0.01-0.04-0.03-0.07-0.04-0.11c-0.42-1-1-1.95-1.62-2.82c-0.01-0.01-0.01-0.02-0.02-0.02c-0.31-0.45-0.64-0.88-0.96-1.28
						c-2.36-2.95-5.61-5.96-9.37-6.94c-3.3-0.86-6.56-0.29-9.87,0.2c-3.75,0.55-7.55,0.81-11.34,0.73
						c-6.63-0.14-13.79-0.99-19.77-4.07c-1.11-0.57-2.15-1.37-3.06-2c0.06,0.07,0.1,0.13,0.12,0.15c-0.01-0.02-0.07-0.07-0.16-0.18
						c-0.55-0.38-0.15-0.17-0.03-0.03c0.01,0.01,0.02,0.02,0.03,0.03c0.02,0.01,0.03,0.02,0.04,0.03c-0.08-0.1-0.19-0.22-0.23-0.28
						c0.01,0.01,0.01,0.02,0.01,0.03c-0.01-0.01-0.02-0.03-0.04-0.06c0.01,0,0.01,0.01,0.02,0.02c-0.11-0.2-0.39-0.71-0.43-0.77
						c-1.38-2.51-1.9-5.49-1.58-8.32c0.66-5.98,5.6-10.34,11.13-12.05c6.25-1.93,12.82-0.58,18.79,1.65
						c7.07,2.65,13.89,6.07,20.77,9.18c6.69,3.03,13.49,6.9,20.67,8.62c6.04,1.44,13.65,0.58,16.81-5.54
						c3.13-6.06,1.17-12.98-1.05-18.98c-2.33-6.29-4.11-12.29-3.64-19.07c0.81-11.7,8.07-22.68,20.1-24.98
						c4.74-0.9,10.35-0.45,14.14,2.2c-0.04-0.05-0.07-0.09-0.09-0.11c0.04,0.03,0.11,0.09,0.18,0.14l0,0l0.01,0
						c0.06,0.06,0.12,0.1,0.13,0.12c-0.01,0-0.04-0.02-0.08-0.05c0,0.01,0,0.01,0,0.01c0.01,0.01,0.01,0.01,0.01,0.02
						c0.02,0.02,0.03,0.05,0.06,0.09c0.01,0,0.01,0.01,0.01,0.01c0.02,0.02,0.03,0.05,0.04,0.06c0.01,0.01,0.01,0.01,0.01,0.02
						c0.01,0,0.01,0.01,0.01,0.01c0.04,0.07,0.08,0.14,0.12,0.21c0.64,1.16,1.17,2.32,1.58,3.59c0.96,2.98,1.25,6.11,1.14,9.23
						c-0.52,13.97-9.84,24.91-17.52,35.79c-1.87,2.65-4.04,5.37-5.18,8.43c-1.46,3.93,0.79,7.42,3.49,10.22
						c2.37,2.46,5.2,4.59,8.74,4.65c3.14,0.05,6.18-1.2,9.13-2.13c7.59-2.41,15.16-4.86,22.77-7.22c6.15-1.9,13.06-3.71,19.14-0.82
						c-0.04-0.11-0.09-0.25-0.13-0.38c-0.2-0.19-0.32-0.36-0.25-0.46c0.04-0.06,0.15,0.19,0.25,0.46c0.6,0.58,1.91,1.29,0.58,0.6
						c-0.15-0.08-0.3-0.15-0.45-0.22c0.04,0.12,0.07,0.21,0.08,0.25c0.4,1.3,0.36,2.71,0.09,4.03c-0.59,2.95-2.64,5.5-4.97,7.31
						c-6.07,4.7-14.92,4.97-22.22,6.14c-7.65,1.22-15.71,1.89-23.07,4.43c-5.96,2.06-11.55,6.3-12.96,12.76
						c-1.58,7.18,2.89,14.35,7.05,19.78c2.17,2.83,4.66,5.42,6.8,8.28c2.04,2.73,3.62,5.8,4.8,8.99c2.47,6.7,3.28,13.96,2.29,21.05
						c-0.84,5.99-3.37,12.54-9.15,15.34C1289.01,993.96,1287.22,994.33,1285.46,994.13z"/>
					<path class="st8" d="M1238.73,907.12c-0.09-0.25-0.2-0.49-0.31-0.74c-0.32-0.69-0.77-1.4-1.31-2.08
						C1237.73,905.18,1238.31,906.13,1238.73,907.12z"/>
					<path class="st8" d="M1239.18,908.5c-0.1-0.43-0.24-0.86-0.41-1.27C1238.93,907.66,1239.07,908.08,1239.18,908.5z"/>
					<path class="st8" d="M1258.18,906.2"/>
					<path class="st8" d="M1255.54,906.66c-1.05-4.75,3.69-9.19,7.81-10.51c2.27-0.72,4.51-1.14,6.71,0.05
						c1.86,1,3.63,2.87,4.57,4.76c4.5,9.06-14.86,14.97-18.8,6.94c-0.96-1.96,1.93-2.11,2.7-0.55c1.34,2.73,7.39,1.02,9.41,0.13
						c2.61-1.15,5.7-3.67,3.52-6.68c-0.78-1.07-1.89-2.31-3.27-2.5c-1.4-0.19-3.36,0.54-4.61,1.1c-2.4,1.07-5.7,4.63-5.08,7.44
						C1258.94,908.88,1255.89,908.25,1255.54,906.66L1255.54,906.66z"/>
				</g>
			</g>
			<g>
				<g>
					<path class="st5" d="M1852.62,221.69c6.89-2.21,8.65-11.69,8.77-17.91c0.12-6.72-1.43-13.7-3.05-20.19
						c-1.77-7.08-4.18-14.02-7.19-20.67c-1.56-3.46-3.53-6.82-4.47-10.52c-0.18-0.71-0.36-1.44-0.42-2.17c0-0.02,0-0.04-0.01-0.06
						c0.3-0.35,0.55-0.82,0.9-1.12c4.97-4.18,11.97,0.34,16.37,3.17c10.34,6.65,24.39,13.39,36.12,5.74
						c5.6-3.64,8.44-10.28,9.45-16.67c0.94-5.91-0.05-11.91-5-15.74c-9.52-7.36-22.27-2.09-33.03-2.88
						c-2.94-0.21-5.93-0.86-8.52-2.31c-1.18-0.66-2.51-1.66-3.52-2.85c0.02-0.26,0.03-0.55,0-0.82c0-0.02,0-0.03,0-0.05
						c-0.06-0.13-0.18-0.44-0.13-0.83c0.09-0.61,0.54-0.95,0.63-1.01l-0.01,0c0.1-0.05,0.2-0.11,0.31-0.16
						c2.98-1.58,6.27-2.55,9.3-4.05c5.92-2.94,11.55-6.83,16.06-11.69c4.74-5.11,7.71-11.68,8.62-18.58
						c0.77-5.85,0.03-12.69-4.67-16.82c-4.14-3.65-9.74-4.01-14.86-2.5c-5.99,1.77-10.63,6.36-14.43,11.12
						c-4.45,5.58-8.44,11.58-12.6,17.38c-2.17,3.03-4.32,6.09-6.52,9.1c-1.85,2.53-3.81,5.07-6.42,6.86
						c-5.47,3.75-12.05,2.95-15.73-2.75c-3.61-5.59-3.13-12.71-5.18-18.87c-3.41-10.29-11.88-20.18-23.35-21
						c-4.94-0.35-10.15,0.95-14.28,3.7c-5.12,3.41-8.1,8.81-9.56,14.68c-1.58,6.35-1.26,12.85,1.49,18.82
						c2.48,5.38,6.59,9.8,11.39,13.2c5.39,3.82,11.48,6.46,17.49,9.14c2.92,1.3,5.86,2.59,8.68,4.09c0.32,0.17,0.64,0.35,0.96,0.53
						c-1.82,0.58-3.76,0.88-5.59,1.29c-3.74,0.83-7.47,1.65-11.2,2.47c-6.63,1.46-14.04,2.32-20.03,5.72
						c-6.33,3.59-9.58,10.72-10.16,17.78c-0.25,3.05,0.13,6.34,2.08,8.82c1.69,2.14,4.22,3.55,6.85,4.16
						c6.76,1.57,13.75-1.9,19.9-4.26c3.61-1.38,7.22-2.77,10.83-4.15c3.45-1.32,6.91-2.76,10.54-3.53
						c5.87-1.24,13.17-0.47,16.77,4.95c3.71,5.6,1.64,12.14,0.7,18.22c-2.07,13.28,0.64,28.05,10.35,37.94
						C1841.25,220.46,1846.82,223.56,1852.62,221.69z M1845.95,150.46C1845.82,150.96,1845.83,150.61,1845.95,150.46L1845.95,150.46
						z M1852.2,212.31c-5.8,0.43-10.76-3.56-14.13-7.87c-3.99-5.1-6.65-11.16-7.74-17.53c-0.52-3.04-0.67-6.16-0.31-9.22
						c0.38-3.21,1.15-6.37,1.57-9.57c0.81-6.14,1.06-13.78-3.44-18.7c-4.04-4.42-10.34-5.21-15.94-4.12
						c-6.92,1.34-13.54,4.47-20.09,6.98c-6.25,2.39-13.31,6.2-20.2,5.26c-2.64-0.36-5.4-1.43-7.21-3.47c-0.81-0.91-1.47-2-1.75-3.2
						c-0.01-0.03-0.03-0.12-0.05-0.23c-0.09,0.12-0.17,0.25-0.25,0.38c-0.73,1.14-0.03-0.01,0.18-0.73
						c-0.04-0.26-0.07-0.51-0.01-0.48c0.1,0.05,0.09,0.24,0.01,0.48c0.02,0.12,0.05,0.25,0.07,0.36c3.45-5.03,9.69-6.74,15.37-8.04
						c7.03-1.6,14.08-3.11,21.12-4.67c2.73-0.6,5.68-1,8.12-2.47c2.75-1.65,4-4.61,4.74-7.61c0.85-3.42,1.03-7.17-1.9-9.59
						c-2.28-1.89-5.22-3.04-7.88-4.26c-10.96-5.04-23.22-9.39-29.96-20.11c-1.5-2.39-2.69-4.98-3.29-7.75
						c-0.26-1.18-0.37-2.33-0.39-3.53c0-0.07,0-0.15,0-0.22c0,0,0-0.01,0-0.01c0-0.01,0-0.01,0-0.02c0-0.02,0-0.04,0-0.07
						c0-0.01,0-0.01,0-0.02c0-0.04,0-0.07,0.01-0.09c0-0.01,0-0.01,0-0.02c0,0,0,0,0-0.01c-0.02,0.04-0.03,0.07-0.04,0.08
						c0-0.02,0.02-0.08,0.05-0.15l0,0l0,0c0.03-0.07,0.06-0.15,0.08-0.19c0,0.03-0.01,0.08-0.02,0.13
						c1.77-3.79,5.96-6.69,10.08-8.13c10.47-3.66,21.13,1.66,27.07,10.46c3.44,5.11,4.77,10.61,5.79,16.6
						c0.98,5.71,2.58,12.02,7.78,15.35c5.26,3.36,11.61,0.59,15.69-3.28c4.85-4.61,8.42-10.72,12.29-16.13
						c3.98-5.56,7.77-11.33,12.11-16.61c3.67-4.46,8.2-8.5,13.98-9.82c5.1-1.17,10.96,0.01,14.18,4.39
						c1.53,2.08,2.47,4.65,2.53,7.24c0,0.07,0.01,0.6,0.02,0.8c0-0.01,0-0.02,0.01-0.02c0,0.03,0,0.05,0,0.06c0-0.01,0-0.02,0-0.03
						c-0.01,0.07-0.03,0.21-0.05,0.33c0.01-0.02,0.01-0.03,0.02-0.04c0-0.01,0.01-0.02,0.01-0.04c0.03-0.17,0.25-0.51-0.01,0.04
						c-0.03,0.13-0.04,0.19-0.04,0.21c0-0.02,0.01-0.09,0.02-0.17c-0.43,0.91-0.88,2.01-1.49,2.96c-3.29,5.12-8.51,9.03-13.65,12.15
						c-2.94,1.78-6.03,3.3-9.22,4.57c-2.81,1.12-5.63,2.15-7.83,4.32c-2.5,2.47-3.69,6.3-4.2,9.69c-0.07,0.46-0.13,0.95-0.18,1.44
						c0,0.01,0,0.02-0.01,0.03c-0.09,0.97-0.11,1.98,0.01,2.95c0,0.04,0.01,0.07,0.02,0.1c0.07,0.41,0.15,0.8,0.25,1.18
						c1.32,5.03,5.51,8.21,10.72,9.41c5.86,1.35,11.93,0.29,17.82-0.26c5.15-0.48,10.55-0.44,15.4,1.6
						c2.32,0.98,4.38,2.41,5.85,4.48c0.68,0.96,1.23,2,1.55,3.14c0.13,0.47,0.25,0.96,0.3,1.45c0,0.05,0.01,0.36,0.02,0.62
						c0.02-0.01,0.03,0.02,0.04,0.12c0.02-0.03,0.03-0.06,0.03-0.07c0,0,0,0,0,0c-0.01,0.02-0.02,0.04-0.03,0.06c0,0,0,0,0,0.01
						c0,0.02,0,0.06,0,0.09c0,0.1-0.01,0.15-0.02,0.17c0-0.02-0.01-0.09-0.01-0.2l-0.02,0.04c-0.01,0.01-0.01,0.02-0.01,0.03
						c-0.12,0.23-0.3,0.59-0.36,0.69c-0.64,1.1-1.51,2.12-2.47,2.95c-2.27,1.96-5.16,3.26-8.07,3.89
						c-6.24,1.35-12.7-0.11-18.43-2.67c-5.74-2.56-10.61-6.65-16.31-9.23c-5.47-2.47-11.05-1.66-14.23,3.77
						c-3.6,6.15-4.2,14.01-1.79,20.64c1.24,3.42,2.99,6.62,4.46,9.94c1.42,3.23,2.7,6.52,3.81,9.86c2.24,6.74,3.87,13.68,4.88,20.71
						c0.19,1.34,0.38,2.68,0.46,4.04c0.03,0.54,0.03,1.08,0.05,1.63c0.07-0.06,0.14-0.1,0.2-0.13c0.06-0.02,0.08-0.04,0.08-0.04
						c-0.02,0.02-0.14,0.12-0.15,0.32c-0.03,0.63-0.09,0.78-0.12,0.1c0-0.08-0.01-0.17-0.01-0.25c-0.36,0.3-0.78,0.95-1.09,1.17
						C1855.37,211.67,1853.8,212.19,1852.2,212.31z"/>
					<path class="st5" d="M1853.84,121.33c-0.04-0.24-0.07-0.48-0.09-0.72c-0.07-0.69-0.03-1.45,0.08-2.23
						C1853.74,119.36,1853.72,120.36,1853.84,121.33z"/>
					<path class="st5" d="M1854.11,122.62c-0.12-0.39-0.2-0.78-0.25-1.18C1853.92,121.84,1854,122.24,1854.11,122.62z"/>
					<path class="st5" d="M1838.18,129.43"/>
					<path class="st5" d="M1840.46,128.6c-1.33-4.2-7.06-5.53-10.88-4.69c-2.11,0.46-4.05,1.15-5.24,3.08
						c-1,1.63-1.54,3.89-1.42,5.8c0.58,9.14,18.43,5,17.88-3.08c-0.14-1.97-2.47-0.77-2.36,0.79c0.19,2.75-5.33,4.15-7.32,4.37
						c-2.57,0.29-6.13-0.29-5.79-3.64c0.12-1.19,0.43-2.67,1.43-3.44c1.01-0.78,2.88-1.1,4.11-1.23c2.37-0.25,6.57,1.04,7.36,3.53
						C1838.8,131.88,1840.9,129.99,1840.46,128.6L1840.46,128.6z"/>
				</g>
			</g>
			<g>
				<g class="st2">
					<circle class="st3" cx="351.58" cy="801.12" r="188.08"/>
				</g>
				<path class="st4" d="M488.71,880.38c-13.09,26.03-39.2,47-65.4,58.91c-27.76,12.61-57.06,17.1-87.23,12.39
					c-10.63-1.66-17.58-15.34-14.48-25.12c3.66-11.54,13.73-16.25,25.12-14.48c4.7,0.73-3.79-0.31,0.56,0.11
					c1.51,0.14,3.01,0.3,4.52,0.4c3.02,0.21,6.04,0.29,9.06,0.26c2.77-0.03,5.54-0.15,8.3-0.37c1.51-0.12,3.01-0.32,4.51-0.44
					c2.53-0.21-3.85,0.69-0.02,0.01c5.98-1.07,11.88-2.33,17.69-4.11c2.66-0.82,5.3-1.72,7.9-2.7c0.57-0.21,5.27-2.2,2.52-0.97
					c-2.76,1.23,1.91-0.9,2.45-1.15c5.29-2.47,10.42-5.28,15.36-8.4c2.58-1.63,5.06-3.39,7.56-5.13c3.16-2.21-1.85,1.56,0.07-0.05
					c1.17-0.98,2.37-1.91,3.54-2.89c4.71-3.98,9.17-8.27,13.27-12.88c1.14-1.29,2.26-2.61,3.34-3.95c-2.26,2.8-0.06-0.04,0.83-1.34
					c1.93-2.85,3.63-5.82,5.18-8.9c4.82-9.6,19.2-13.03,28.07-7.28C491.25,858.68,493.88,870.1,488.71,880.38L488.71,880.38z"/>
				<circle class="st4" cx="279.31" cy="917.2" r="18.64"/>
			</g>
			<g>
				<g class="st2">
					<circle class="st3" cx="1753.06" cy="598.2" r="125.38"/>
				</g>
				<path class="st4" d="M1858.61,601.01c0.61,19.42-8.01,40.01-19.57,55.31c-12.25,16.22-27.99,28.17-47.16,35.01
					c-6.76,2.41-15.18-3.4-16.47-10.11c-1.53-7.93,2.87-13.89,10.11-16.47c2.98-1.06-2.32,1.02,0.36-0.12
					c0.93-0.39,1.86-0.79,2.78-1.21c1.83-0.84,3.63-1.75,5.39-2.73c1.61-0.9,3.2-1.85,4.74-2.86c0.84-0.55,1.66-1.14,2.5-1.69
					c1.42-0.93-2.04,1.63-0.01,0.01c3.16-2.53,6.22-5.14,9.06-8.04c1.3-1.32,2.56-2.69,3.77-4.1c0.26-0.3,2.39-2.96,1.17-1.37
					c-1.22,1.6,0.84-1.13,1.07-1.45c2.31-3.13,4.42-6.41,6.32-9.81c0.99-1.78,1.89-3.59,2.8-5.41c1.15-2.3-0.59,1.5,0.03-0.05
					c0.37-0.94,0.78-1.87,1.15-2.82c1.49-3.83,2.74-7.76,3.68-11.76c0.26-1.12,0.49-2.24,0.7-3.37c-0.43,2.36-0.04,0,0.06-1.05
					c0.23-2.29,0.28-4.57,0.2-6.86c-0.23-7.16,7.1-13.74,14.13-13.19C1853.19,587.5,1858.36,593.35,1858.61,601.01L1858.61,601.01z"
					/>
				<circle class="st4" cx="1747.65" cy="689.19" r="12.43"/>
			</g>
			<g>
				<path class="st7" d="M254.83,230.9c6.89-2.21,8.65-11.69,8.77-17.91c0.12-6.72-1.43-13.7-3.05-20.19
					c-1.77-7.08-4.18-14.02-7.19-20.67c-1.56-3.46-3.53-6.82-4.47-10.52c-0.18-0.71-0.36-1.44-0.42-2.17c0-0.02,0-0.04-0.01-0.06
					c0.3-0.35,0.55-0.82,0.9-1.12c4.97-4.18,11.97,0.34,16.37,3.17c10.34,6.65,24.39,13.39,36.12,5.74
					c5.6-3.64,8.44-10.28,9.45-16.67c0.94-5.91-0.05-11.91-5-15.74c-9.52-7.36-22.27-2.09-33.03-2.88
					c-2.94-0.21-5.93-0.86-8.52-2.31c-1.18-0.66-2.51-1.66-3.52-2.85c0.02-0.26,0.03-0.55,0-0.82c0-0.02,0-0.03,0-0.05
					c-0.06-0.13-0.18-0.44-0.13-0.83c0.09-0.61,0.54-0.95,0.63-1.01l-0.01,0c0.1-0.05,0.2-0.11,0.31-0.16
					c2.98-1.58,6.27-2.55,9.3-4.05c5.92-2.94,11.55-6.83,16.06-11.69c4.74-5.11,7.71-11.68,8.62-18.58
					c0.77-5.85,0.03-12.69-4.67-16.82c-4.14-3.65-9.74-4.01-14.86-2.5c-5.99,1.77-10.63,6.36-14.43,11.12
					c-4.45,5.58-8.44,11.58-12.6,17.38c-2.17,3.03-4.32,6.09-6.52,9.1c-1.85,2.53-3.81,5.07-6.42,6.86
					c-5.47,3.75-12.05,2.95-15.73-2.75c-3.61-5.59-3.13-12.71-5.18-18.87c-3.41-10.29-11.88-20.18-23.35-21
					c-4.94-0.35-10.15,0.95-14.28,3.7c-5.12,3.41-8.1,8.81-9.56,14.68c-1.58,6.35-1.26,12.85,1.49,18.82
					c2.48,5.38,6.59,9.8,11.39,13.2c5.39,3.82,11.48,6.46,17.49,9.14c2.92,1.3,5.86,2.59,8.68,4.09c0.32,0.17,0.64,0.35,0.96,0.53
					c-1.82,0.58-3.76,0.88-5.59,1.29c-3.74,0.83-7.47,1.65-11.2,2.47c-6.63,1.46-14.04,2.32-20.03,5.72
					c-6.33,3.59-9.58,10.72-10.16,17.78c-0.25,3.05,0.13,6.34,2.08,8.82c1.69,2.14,4.22,3.55,6.85,4.16
					c6.76,1.57,13.75-1.9,19.9-4.26c3.61-1.38,7.22-2.77,10.83-4.15c3.45-1.32,6.91-2.76,10.54-3.53
					c5.87-1.24,13.17-0.47,16.77,4.95c3.71,5.6,1.64,12.14,0.7,18.22c-2.07,13.28,0.64,28.05,10.35,37.94
					C243.45,229.67,249.02,232.76,254.83,230.9z M248.16,159.67C248.02,160.17,248.04,159.81,248.16,159.67L248.16,159.67z
					 M254.4,221.52c-5.8,0.43-10.76-3.56-14.13-7.87c-3.99-5.1-6.65-11.16-7.74-17.53c-0.52-3.04-0.67-6.16-0.31-9.22
					c0.38-3.21,1.15-6.37,1.57-9.57c0.81-6.14,1.06-13.78-3.44-18.7c-4.04-4.42-10.34-5.21-15.94-4.12
					c-6.92,1.34-13.54,4.47-20.09,6.98c-6.25,2.39-13.31,6.2-20.2,5.26c-2.64-0.36-5.4-1.43-7.21-3.47c-0.81-0.91-1.47-2-1.75-3.2
					c-0.01-0.03-0.03-0.12-0.05-0.23c-0.09,0.12-0.17,0.25-0.25,0.38c-0.73,1.14-0.03-0.01,0.18-0.73
					c-0.04-0.26-0.07-0.51-0.01-0.48c0.1,0.05,0.09,0.24,0.01,0.48c0.02,0.12,0.05,0.25,0.07,0.36c3.45-5.03,9.69-6.74,15.37-8.04
					c7.03-1.6,14.08-3.11,21.12-4.67c2.73-0.6,5.68-1,8.12-2.47c2.75-1.65,4-4.61,4.74-7.61c0.85-3.42,1.03-7.17-1.9-9.59
					c-2.27-1.89-5.22-3.04-7.88-4.26c-10.96-5.04-23.22-9.39-29.96-20.11c-1.5-2.39-2.69-4.98-3.29-7.75
					c-0.26-1.18-0.37-2.33-0.39-3.53c0-0.07,0-0.15,0-0.22c0,0,0-0.01,0-0.01c0-0.01,0-0.01,0-0.02c0-0.02,0-0.04,0-0.07
					c0-0.01,0-0.01,0-0.02c0-0.04,0-0.07,0.01-0.09c0-0.01,0-0.01,0-0.02c0,0,0,0,0-0.01c-0.02,0.04-0.03,0.07-0.04,0.08
					c0-0.02,0.02-0.08,0.05-0.15l0,0l0,0c0.03-0.07,0.06-0.15,0.08-0.19c0,0.03-0.01,0.08-0.02,0.13c1.77-3.79,5.96-6.69,10.08-8.13
					c10.47-3.66,21.13,1.66,27.07,10.46c3.44,5.11,4.77,10.61,5.79,16.6c0.98,5.71,2.58,12.02,7.78,15.35
					c5.26,3.36,11.61,0.59,15.69-3.28c4.85-4.61,8.42-10.72,12.29-16.13c3.98-5.56,7.77-11.33,12.11-16.61
					c3.67-4.46,8.2-8.5,13.98-9.82c5.1-1.17,10.96,0.01,14.18,4.39c1.53,2.08,2.47,4.65,2.53,7.24c0,0.07,0.01,0.6,0.02,0.8
					c0-0.01,0-0.02,0.01-0.02c0,0.03,0,0.05,0,0.06c0-0.01,0-0.02,0-0.03c-0.01,0.07-0.03,0.21-0.05,0.33
					c0.01-0.02,0.01-0.03,0.02-0.04c0-0.01,0.01-0.02,0.01-0.04c0.03-0.17,0.25-0.51-0.01,0.04c-0.03,0.13-0.04,0.19-0.04,0.21
					c0-0.02,0.01-0.09,0.02-0.17c-0.43,0.91-0.88,2.01-1.49,2.96c-3.29,5.12-8.51,9.03-13.65,12.15c-2.94,1.78-6.03,3.3-9.22,4.57
					c-2.81,1.12-5.63,2.15-7.83,4.32c-2.5,2.47-3.69,6.3-4.2,9.69c-0.07,0.46-0.13,0.95-0.18,1.44c0,0.01,0,0.02-0.01,0.03
					c-0.09,0.97-0.11,1.98,0.01,2.95c0,0.04,0.01,0.07,0.02,0.1c0.07,0.41,0.15,0.8,0.25,1.18c1.32,5.03,5.51,8.21,10.72,9.41
					c5.86,1.35,11.93,0.29,17.82-0.26c5.15-0.48,10.55-0.44,15.4,1.6c2.32,0.98,4.38,2.41,5.85,4.48c0.68,0.96,1.23,2,1.55,3.14
					c0.13,0.47,0.25,0.96,0.3,1.45c0,0.05,0.01,0.36,0.02,0.62c0.02-0.01,0.03,0.02,0.04,0.12c0.02-0.03,0.03-0.06,0.03-0.07
					c0,0,0,0,0,0c-0.01,0.02-0.02,0.04-0.03,0.06c0,0,0,0,0,0.01c0,0.02,0,0.06,0,0.09c0,0.1-0.01,0.15-0.02,0.17
					c0-0.02-0.01-0.09-0.01-0.2l-0.02,0.04c-0.01,0.01-0.01,0.02-0.01,0.03c-0.12,0.23-0.3,0.59-0.36,0.69
					c-0.64,1.1-1.51,2.12-2.47,2.95c-2.27,1.96-5.16,3.26-8.07,3.89c-6.24,1.35-12.7-0.11-18.43-2.67
					c-5.74-2.56-10.61-6.65-16.31-9.23c-5.47-2.47-11.05-1.66-14.23,3.77c-3.6,6.15-4.2,14.01-1.79,20.64
					c1.24,3.42,2.99,6.62,4.46,9.94c1.42,3.23,2.7,6.52,3.81,9.86c2.24,6.74,3.87,13.68,4.88,20.71c0.19,1.34,0.38,2.68,0.46,4.04
					c0.03,0.54,0.03,1.08,0.05,1.63c0.07-0.06,0.14-0.1,0.2-0.13c0.06-0.02,0.08-0.04,0.08-0.04c-0.02,0.02-0.14,0.12-0.15,0.32
					c-0.03,0.63-0.09,0.78-0.12,0.1c0-0.08-0.01-0.17-0.01-0.25c-0.36,0.3-0.78,0.95-1.09,1.17
					C257.58,220.88,256,221.4,254.4,221.52z"/>
				<path class="st7" d="M256.05,130.54c-0.04-0.24-0.07-0.48-0.09-0.72c-0.07-0.69-0.03-1.45,0.08-2.23
					C255.94,128.56,255.92,129.57,256.05,130.54z"/>
				<path class="st7" d="M256.31,131.83c-0.12-0.39-0.2-0.78-0.25-1.18C256.13,131.05,256.21,131.45,256.31,131.83z"/>
				<path class="st7" d="M240.38,138.64"/>
				<path class="st7" d="M242.66,137.8c-1.33-4.2-7.06-5.53-10.88-4.69c-2.11,0.46-4.05,1.15-5.24,3.08c-1,1.63-1.54,3.89-1.42,5.8
					c0.58,9.14,18.43,5,17.88-3.08c-0.14-1.97-2.47-0.77-2.36,0.79c0.19,2.75-5.33,4.15-7.32,4.37c-2.57,0.29-6.13-0.29-5.79-3.64
					c0.12-1.19,0.43-2.67,1.43-3.44c1.01-0.78,2.88-1.1,4.11-1.23c2.37-0.25,6.57,1.04,7.36,3.53
					C241,141.09,243.11,139.2,242.66,137.8L242.66,137.8z"/>
			</g>
			<g>
				<g class="st2">
					<circle class="st3" cx="1437.53" cy="828.15" r="32.1"/>
				</g>
				<path class="st4" d="M1464.55,828.87c0.16,4.97-2.05,10.24-5.01,14.16c-3.14,4.15-7.16,7.21-12.07,8.96
					c-1.73,0.62-3.89-0.87-4.22-2.59c-0.39-2.03,0.74-3.56,2.59-4.22c0.76-0.27-0.59,0.26,0.09-0.03c0.24-0.1,0.48-0.2,0.71-0.31
					c0.47-0.21,0.93-0.45,1.38-0.7c0.41-0.23,0.82-0.47,1.21-0.73c0.22-0.14,0.43-0.29,0.64-0.43c0.36-0.24-0.52,0.42,0,0
					c0.81-0.65,1.59-1.32,2.32-2.06c0.33-0.34,0.65-0.69,0.97-1.05c0.07-0.08,0.61-0.76,0.3-0.35c-0.31,0.41,0.21-0.29,0.27-0.37
					c0.59-0.8,1.13-1.64,1.62-2.51c0.25-0.45,0.48-0.92,0.72-1.39c0.29-0.59-0.15,0.38,0.01-0.01c0.1-0.24,0.2-0.48,0.3-0.72
					c0.38-0.98,0.7-1.99,0.94-3.01c0.07-0.29,0.13-0.57,0.18-0.86c-0.11,0.6-0.01,0,0.02-0.27c0.06-0.59,0.07-1.17,0.05-1.76
					c-0.06-1.83,1.82-3.52,3.62-3.38C1463.16,825.41,1464.49,826.9,1464.55,828.87L1464.55,828.87z"/>
				<circle class="st4" cx="1436.15" cy="851.44" r="3.18"/>
			</g>
			<g>
				<g class="st2">
					<circle class="st3" cx="926.44" cy="829.24" r="74.43"/>
				</g>
				<path class="st4" d="M989.09,830.91c0.36,11.53-4.76,23.75-11.62,32.84c-7.27,9.63-16.61,16.72-27.99,20.78
					c-4.01,1.43-9.01-2.02-9.78-6c-0.91-4.71,1.71-8.24,6-9.78c1.77-0.63-1.38,0.61,0.21-0.07c0.55-0.23,1.1-0.47,1.65-0.72
					c1.09-0.5,2.16-1.04,3.2-1.62c0.96-0.53,1.9-1.1,2.82-1.7c0.5-0.33,0.99-0.68,1.49-1c0.84-0.55-1.21,0.97-0.01,0.01
					c1.88-1.5,3.69-3.05,5.38-4.77c0.77-0.79,1.52-1.6,2.24-2.43c0.16-0.18,1.42-1.76,0.69-0.81c-0.73,0.95,0.5-0.67,0.64-0.86
					c1.37-1.86,2.63-3.81,3.75-5.82c0.59-1.05,1.12-2.13,1.66-3.21c0.68-1.36-0.35,0.89,0.02-0.03c0.22-0.56,0.47-1.11,0.68-1.67
					c0.89-2.27,1.63-4.61,2.18-6.98c0.15-0.66,0.29-1.33,0.42-2c-0.26,1.4-0.03,0,0.03-0.62c0.13-1.36,0.16-2.71,0.12-4.07
					c-0.13-4.25,4.22-8.16,8.39-7.83C985.88,822.89,988.95,826.36,989.09,830.91L989.09,830.91z"/>
				<circle class="st4" cx="923.23" cy="883.26" r="7.38"/>
			</g>
			<g>
				<g>
					<path class="st8" d="M645.29,369.55c3.81-14.82-1.77-30.44-11.09-41.99c-4.26-5.28-9.86-10.4-9.41-17.8
						c0.44-7.17,7-11.94,13.29-14c3.89-1.28,8-1.82,12.03-2.46c4.21-0.67,8.43-1.35,12.65-2.02c7.18-1.15,15.79-1.69,21.38-6.93
						c2.17-2.04,3.82-4.79,4.24-7.77c0.49-3.45-0.96-6.8-2.89-9.58c-4.46-6.43-11.51-11.45-19.54-11.38
						c-7.6,0.06-15.17,3.34-22.31,5.61c-4.03,1.28-8.05,2.55-12.08,3.83c-1.97,0.62-3.99,1.4-6.05,1.86c0.2-0.36,0.42-0.7,0.63-1.04
						c1.87-3,3.96-5.85,6.04-8.71c4.26-5.88,8.62-11.77,11.66-18.41c2.71-5.9,4.19-12.41,3.59-18.92
						c-0.67-7.24-3.96-13.62-8.98-18.82c-4.64-4.8-10.48-8.32-17.26-8.74c-5.47-0.34-11.17,1.3-15.7,4.36
						c-10.51,7.13-13.14,21.27-10.71,32.99c1.45,7.03,5.84,13.57,5.49,20.91c-0.36,7.48-6.21,11.88-13.52,11.32
						c-3.48-0.27-6.77-1.61-9.93-3.01c-3.77-1.66-7.51-3.4-11.26-5.09c-7.19-3.25-14.31-6.78-21.66-9.65
						c-6.27-2.45-13.25-4.27-19.95-2.65c-5.73,1.39-10.89,4.83-12.83,10.61c-2.2,6.55,0.87,13.5,4.84,18.67
						c4.68,6.1,11.16,10.73,18.51,13c7,2.15,14.53,2.77,21.82,2.3c3.73-0.24,7.4-1.13,11.13-1.27c0.13-0.01,0.26-0.01,0.39-0.01
						l-0.01,0.01c0.12,0.01,0.74,0.08,1.16,0.62c0.27,0.34,0.32,0.7,0.34,0.86c0.01,0.02,0.02,0.03,0.02,0.05
						c0.13,0.27,0.29,0.54,0.45,0.78c-0.31,1.71-1.03,3.39-1.79,4.67c-1.67,2.82-4.18,5.09-6.87,6.92
						c-9.85,6.71-24.96,8.72-29.99,21.02c-2.61,6.39-0.24,12.68,3.93,17.81c4.5,5.55,10.89,10.33,18.25,10.71
						c15.44,0.82,25.15-13.39,31.35-25.47c2.64-5.14,6.84-13.33,13.9-12.08c0.5,0.09,1,0.4,1.48,0.57c0.01,0.02,0.02,0.04,0.03,0.07
						c0.34,0.73,0.58,1.53,0.8,2.31c1.15,4.05,1.13,8.36,1.54,12.52c0.81,8.02,2.34,15.99,4.56,23.74
						c2.04,7.1,4.41,14.63,8.25,20.99c3.55,5.89,10.48,13.97,18.29,12.28C640.11,381.68,643.72,375.64,645.29,369.55z
						 M600.51,311.32C600.71,311.4,600.92,311.73,600.51,311.32L600.51,311.32z M623.59,374.85c-0.42-0.05-1.18-0.43-1.69-0.52
						c0.05,0.08,0.09,0.16,0.13,0.25c0.35,0.67,0.21,0.55-0.17-0.03c-0.12-0.19-0.28-0.21-0.32-0.23c0,0,0.03,0,0.1-0.01
						c0.07-0.01,0.16,0,0.26,0.02c-0.29-0.53-0.59-1.04-0.86-1.58c-0.67-1.34-1.23-2.73-1.79-4.12c-2.92-7.28-5.2-14.82-6.78-22.5
						c-0.78-3.81-1.38-7.67-1.81-11.54c-0.44-3.99-0.54-8.02-1.24-11.97c-1.36-7.68-6.29-14.86-13.13-18.75
						c-6.05-3.43-11.82-1.12-15.69,4.27c-4.03,5.61-6.42,12.22-10.49,17.85c-4.07,5.61-9.43,10.58-16.14,12.74
						c-3.13,1.01-6.62,1.37-9.87,0.75c-1.38-0.26-2.77-0.76-3.99-1.46c-0.11-0.06-0.48-0.3-0.72-0.46
						c-0.01-0.01-0.02-0.01-0.03-0.02l-0.04-0.02c0.06,0.1,0.09,0.17,0.1,0.19c-0.02-0.02-0.05-0.06-0.11-0.15
						c-0.02-0.03-0.04-0.06-0.05-0.08c0,0-0.01,0-0.01-0.01c-0.02-0.01-0.04-0.03-0.07-0.04c0,0,0,0,0,0
						c0.01,0.01,0.03,0.02,0.07,0.05c-0.05-0.1-0.06-0.14-0.03-0.14c-0.14-0.26-0.3-0.55-0.33-0.61c-0.21-0.49-0.38-1.03-0.51-1.55
						c-0.32-1.26-0.37-2.56-0.25-3.86c0.26-2.79,1.44-5.3,3.12-7.52c3.5-4.63,8.65-7.66,13.84-10.05
						c5.94-2.73,12.33-5.08,17.18-9.61c4.32-4.04,6.57-9.39,5.05-14.93c-0.11-0.42-0.25-0.85-0.41-1.27
						c-0.01-0.04-0.03-0.07-0.04-0.11c-0.42-1-1-1.95-1.62-2.82c-0.01-0.01-0.01-0.02-0.02-0.02c-0.31-0.45-0.64-0.88-0.96-1.28
						c-2.36-2.95-5.61-5.96-9.37-6.94c-3.3-0.86-6.56-0.29-9.87,0.2c-3.75,0.55-7.55,0.81-11.34,0.73
						c-6.63-0.14-13.79-0.99-19.77-4.07c-1.11-0.57-2.15-1.37-3.06-2c0.06,0.07,0.1,0.13,0.12,0.15c-0.01-0.02-0.07-0.07-0.16-0.18
						c-0.55-0.38-0.15-0.17-0.03-0.03c0.01,0.01,0.02,0.02,0.03,0.03c0.02,0.01,0.03,0.02,0.04,0.03c-0.08-0.1-0.19-0.22-0.23-0.28
						c0.01,0.01,0.01,0.02,0.01,0.03c-0.01-0.01-0.02-0.03-0.04-0.06c0.01,0,0.01,0.01,0.02,0.02c-0.11-0.2-0.39-0.71-0.43-0.77
						c-1.38-2.51-1.9-5.49-1.58-8.32c0.66-5.98,5.6-10.34,11.13-12.05c6.25-1.93,12.82-0.58,18.79,1.65
						c7.07,2.65,13.89,6.07,20.77,9.18c6.69,3.03,13.49,6.9,20.67,8.62c6.04,1.44,13.65,0.58,16.81-5.54
						c3.13-6.06,1.17-12.98-1.05-18.98c-2.33-6.29-4.11-12.29-3.64-19.07c0.81-11.7,8.07-22.68,20.1-24.98
						c4.74-0.9,10.35-0.45,14.14,2.2c-0.04-0.05-0.07-0.09-0.09-0.11c0.04,0.03,0.11,0.09,0.18,0.14l0,0l0.01,0
						c0.06,0.06,0.12,0.1,0.13,0.12c-0.01,0-0.04-0.02-0.08-0.05c0,0.01,0,0.01,0,0.01c0.01,0.01,0.01,0.01,0.01,0.02
						c0.02,0.02,0.03,0.05,0.06,0.09c0.01,0,0.01,0.01,0.01,0.01c0.02,0.02,0.03,0.05,0.04,0.06c0.01,0.01,0.01,0.01,0.01,0.02
						c0.01,0,0.01,0.01,0.01,0.01c0.04,0.07,0.08,0.14,0.12,0.21c0.64,1.16,1.17,2.32,1.58,3.59c0.96,2.98,1.25,6.11,1.14,9.23
						c-0.52,13.97-9.84,24.91-17.52,35.79c-1.87,2.65-4.04,5.37-5.18,8.43c-1.46,3.93,0.79,7.42,3.49,10.22
						c2.37,2.46,5.2,4.59,8.74,4.65c3.14,0.05,6.18-1.2,9.13-2.13c7.59-2.41,15.16-4.86,22.77-7.22c6.15-1.9,13.06-3.71,19.14-0.82
						c-0.04-0.11-0.09-0.25-0.13-0.38c-0.2-0.19-0.32-0.36-0.25-0.46c0.04-0.06,0.15,0.19,0.25,0.46c0.6,0.58,1.91,1.29,0.58,0.6
						c-0.15-0.08-0.3-0.15-0.45-0.22c0.04,0.12,0.07,0.21,0.08,0.25c0.4,1.3,0.36,2.71,0.09,4.03c-0.59,2.95-2.64,5.5-4.97,7.31
						c-6.07,4.7-14.92,4.97-22.22,6.14c-7.65,1.22-15.71,1.89-23.07,4.43c-5.96,2.06-11.55,6.3-12.96,12.76
						c-1.58,7.18,2.89,14.35,7.05,19.78c2.17,2.83,4.66,5.42,6.8,8.28c2.04,2.73,3.62,5.8,4.8,8.99c2.47,6.7,3.28,13.96,2.29,21.05
						c-0.84,5.99-3.37,12.54-9.15,15.34C627.15,374.68,625.36,375.05,623.59,374.85z"/>
					<path class="st8" d="M576.86,287.84c-0.09-0.25-0.2-0.49-0.31-0.74c-0.32-0.69-0.77-1.4-1.31-2.08
						C575.87,285.89,576.45,286.84,576.86,287.84z"/>
					<path class="st8" d="M577.32,289.22c-0.1-0.43-0.24-0.86-0.41-1.27C577.07,288.38,577.21,288.8,577.32,289.22z"/>
					<path class="st8" d="M596.31,286.92"/>
					<path class="st8" d="M593.67,287.38c-1.05-4.75,3.69-9.19,7.81-10.51c2.27-0.72,4.51-1.14,6.71,0.05
						c1.86,1,3.63,2.87,4.57,4.76c4.5,9.06-14.86,14.97-18.8,6.94c-0.96-1.96,1.93-2.11,2.7-0.55c1.34,2.73,7.39,1.02,9.41,0.13
						c2.61-1.15,5.7-3.67,3.52-6.68c-0.78-1.07-1.89-2.31-3.27-2.5c-1.4-0.19-3.36,0.54-4.61,1.1c-2.4,1.07-5.7,4.63-5.08,7.44
						C597.08,289.6,594.02,288.96,593.67,287.38L593.67,287.38z"/>
				</g>
			</g>
			<g>
				<g>
					<path class="st7" d="M1774.23,1183.77c38.32-24.02,58.11-68.84,61.64-112.55c1.61-19.99,0.01-42.35,16.04-57.29
						c15.53-14.46,39.28-11.36,56.97-2.98c10.93,5.17,20.84,12.38,30.78,19.19c10.4,7.13,20.82,14.27,31.22,21.4
						c17.73,12.15,37.29,28.5,59.93,28.63c8.81,0.05,17.92-2.5,24.9-8.02c8.07-6.4,11.78-16.54,13.29-26.42
						c3.53-22.86-1.37-47.95-18.73-64.15c-16.41-15.32-39.3-23.69-59.22-33.36c-11.23-5.46-22.45-10.9-33.68-16.36
						c-5.5-2.68-11.41-5.12-16.75-8.33c1.16-0.35,2.32-0.66,3.46-0.96c10.1-2.62,20.4-4.48,30.66-6.39
						c21.09-3.95,42.43-7.7,62.44-15.72c17.81-7.14,34.22-18.07,46.18-33.24c13.29-16.86,19.22-37.24,19.03-58.6
						c-0.19-19.73-5.54-39.15-19.2-53.84c-11.04-11.87-26.57-19.94-42.52-22.58c-37.03-6.11-71.41,18.86-90.05,48.93
						c-11.17,18.02-15.07,40.96-30.76,55.97c-16,15.3-37.47,12.83-52-3.23c-6.92-7.65-11.22-17.22-15.17-26.64
						c-4.7-11.22-9.19-22.56-13.78-33.82c-8.79-21.58-16.88-43.64-26.78-64.74c-8.44-18-19.71-36.11-37.36-46.26
						c-15.11-8.69-33.16-11.79-49.07-3.35c-18.04,9.55-25.58,30.7-27.59,49.86c-2.37,22.58,2.09,45.7,13.25,65.51
						c10.63,18.84,25.52,35.48,42.09,49.3c8.47,7.07,18.16,12.64,26.43,19.93c0.29,0.25,0.57,0.5,0.85,0.75l-0.03,0
						c0.23,0.26,1.43,1.67,1.24,3.68c-0.12,1.28-0.74,2.16-1.03,2.53c-0.03,0.06-0.04,0.11-0.05,0.15
						c-0.27,0.83-0.46,1.74-0.61,2.59c-4.13,3.03-9.09,5.17-13.34,6.38c-9.32,2.64-19.31,2.41-28.79,0.86
						c-34.77-5.66-71.22-32.08-107.02-15.94c-18.6,8.39-26.3,26.7-27.81,46.16c-1.65,21.07,2.33,44.28,17.32,60.09
						c31.43,33.16,81.13,22.46,119,9.19c16.11-5.64,41.77-14.65,54.36,2.38c0.89,1.21,1.34,2.89,2.01,4.23
						c-0.03,0.07-0.05,0.13-0.07,0.2c-0.75,2.27-1.88,4.46-2.99,6.58c-5.78,11.01-14.58,20.2-22.16,29.98
						c-14.58,18.83-27.5,39.04-38.5,60.16c-10.07,19.36-20.3,40.33-25.01,61.75c-4.37,19.86-5.96,51.27,14.22,63.51
						C1738.44,1199.24,1758.48,1193.64,1774.23,1183.77z M1796.68,967.89C1796.95,968.45,1796.73,969.6,1796.68,967.89
						L1796.68,967.89z M1716.95,1150.99c-0.8-0.95-1.65-3.32-2.56-4.55c-0.07,0.27-0.14,0.54-0.22,0.8
						c-0.62,2.13-0.67,1.61-0.31-0.41c0.12-0.64-0.18-1.04-0.23-1.13c0.01,0.01,0.07,0.06,0.23,0.18c0.17,0.13,0.35,0.32,0.52,0.56
						c0.46-1.71,0.86-3.43,1.38-5.13c1.3-4.24,2.92-8.35,4.54-12.47c8.54-21.54,19-42.32,31.22-62.02
						c6.07-9.77,12.63-19.24,19.59-28.4c7.17-9.43,15.16-18.28,21.7-28.18c12.69-19.22,16.75-44.64,10-66.88
						c-5.98-19.66-23.07-26.45-42.31-22.76c-20.05,3.85-38.62,13.14-58.78,16.91c-20.13,3.76-41.73,3.51-60.52-5.53
						c-8.76-4.21-16.98-10.52-22.68-18.47c-2.42-3.38-4.4-7.26-5.6-11.24c-0.11-0.36-0.42-1.63-0.62-2.46
						c-0.01-0.03-0.01-0.06-0.02-0.09l-0.04-0.13c-0.08,0.32-0.15,0.56-0.18,0.61c-0.01-0.07,0.02-0.24,0.08-0.55
						c0.02-0.1,0.04-0.2,0.05-0.28c0.01-0.01-0.01-0.02,0-0.03c-0.02-0.07-0.04-0.14-0.06-0.22c0.01-0.01,0.01-0.01,0.01-0.01
						c0.01,0.03,0.03,0.11,0.05,0.23c0.09-0.33,0.16-0.41,0.21-0.37c0.23-0.82,0.48-1.8,0.53-1.97c0.55-1.49,1.28-2.98,2.06-4.37
						c1.86-3.35,4.41-6.25,7.3-8.77c6.25-5.45,13.87-8.43,21.98-9.78c16.93-2.81,34.13,1.18,50.09,6.61
						c18.28,6.22,36.75,14.2,56.37,14.36c17.47,0.14,33.19-6.77,41.18-21.72c0.62-1.14,1.18-2.32,1.7-3.57
						c0.05-0.1,0.09-0.2,0.13-0.32c1.13-2.98,1.82-6.19,2.28-9.34c0-0.03,0.01-0.07,0.01-0.09c0.24-1.6,0.41-3.19,0.54-4.71
						c0.96-11.13,0.1-24.2-5.96-33.93c-5.32-8.55-13.49-13.96-21.57-19.65c-9.17-6.45-17.81-13.62-25.79-21.51
						c-13.93-13.79-27.54-30.17-34.09-48.93c-1.22-3.49-1.82-7.29-2.5-10.52c-0.02,0.27-0.05,0.49-0.05,0.55
						c0.01-0.07,0-0.29,0.02-0.71c-0.41-1.93,0.03-0.67,0.01-0.12c-0.01,0.04,0,0.08-0.01,0.12c0.02,0.05,0.02,0.09,0.03,0.15
						c0.02-0.38,0.05-0.85,0.08-1.08c-0.01,0.04-0.02,0.07-0.03,0.09c0-0.06,0.02-0.12,0.03-0.2c0.01,0.02,0.01,0.04,0,0.08
						c0.18-0.64,0.6-2.32,0.66-2.53c2.15-8.18,7.09-15.62,13.53-21.06c13.57-11.47,33.04-10.77,48.35-3.18
						c17.33,8.58,28.66,24.81,36.9,41.76c9.76,20.07,17.42,41.26,25.83,61.91c8.18,20.11,14.88,42.22,26.77,60.52
						c10.01,15.38,28.06,29.01,47.29,22.32c19.04-6.62,28.9-25.44,36.35-42.81c7.8-18.21,16.18-34.69,30.98-48.28
						c25.54-23.44,63.43-32.21,93.87-12.65c11.98,7.7,23.09,20.09,25.82,33.47c0.02-0.17,0.03-0.33,0.04-0.42
						c0.02,0.15,0.06,0.41,0.1,0.66l-0.01,0.01l0.01,0.02c0.02,0.24,0.05,0.45,0.04,0.51c-0.02-0.02-0.04-0.12-0.07-0.27
						c-0.02,0.01-0.02,0.01-0.01,0.02c0,0.03-0.01,0.04-0.02,0.06c-0.01,0.08-0.03,0.18-0.05,0.3c0.01,0.02,0,0.03-0.01,0.05
						c-0.01,0.09-0.03,0.17-0.04,0.22c0,0.03-0.01,0.05-0.02,0.07c0.01,0.02,0,0.03-0.01,0.04c-0.04,0.23-0.11,0.47-0.17,0.7
						c-0.98,3.8-2.21,7.35-3.92,10.9c-4,8.33-9.75,15.65-16.33,22.09c-29.51,28.88-71.75,33.38-110.36,41.06
						c-9.39,1.87-19.59,3.29-28.25,7.55c-11.12,5.46-13.4,17.5-13.3,29.01c0.08,10.1,1.81,20.42,9.28,27.75
						c6.62,6.5,15.69,10.01,23.9,14c21.15,10.27,42.39,20.42,63.48,30.84c17.06,8.44,35.55,18.61,42.68,37.18
						c0.14-0.32,0.32-0.71,0.49-1.08c-0.05-0.81,0.04-1.43,0.4-1.51c0.2-0.05-0.07,0.71-0.4,1.51c0.12,2.46,1.47,6.64,0.02,2.46
						c-0.17-0.47-0.32-0.93-0.51-1.38c-0.15,0.34-0.28,0.6-0.33,0.69c-1.79,3.59-4.73,6.53-7.99,8.82
						c-7.27,5.11-16.84,6.41-25.51,5.55c-22.58-2.27-42.09-19.69-60.11-32.04c-18.88-12.95-37.51-27.91-58.45-37.42
						c-16.98-7.71-37.56-9.99-53.73,0.97c-17.99,12.19-23,36.63-25.11,56.73c-1.1,10.49-1.05,21.1-2.27,31.57
						c-1.18,10-4.03,19.79-8,29.03c-8.33,19.4-21.36,36.61-37.89,49.77c-13.98,11.12-32.72,20.02-50.82,14.26
						C1724.92,1157.87,1720.32,1155.02,1716.95,1150.99z"/>
					<path class="st7" d="M1793.76,869.47c0.3-0.72,0.58-1.46,0.85-2.21c0.74-2.13,1.2-4.57,1.43-7.13
						C1795.59,863.27,1794.89,866.48,1793.76,869.47z"/>
					<path class="st7" d="M1791.94,873.36c0.66-1.14,1.22-2.33,1.7-3.57C1793.11,871.03,1792.55,872.22,1791.94,873.36z"/>
					<path class="st7" d="M1837.32,907.06"/>
					<path class="st7" d="M1830.72,902.68c7.4-12.31,26.61-12.19,38.11-6.63c6.34,3.07,11.99,6.74,14.29,13.75
						c1.95,5.93,1.94,13.53,0.1,19.49c-8.79,28.58-62.3,1.86-54.41-23.35c1.93-6.16,8.43-0.58,6.9,4.3
						c-2.69,8.58,13.75,17.21,19.91,19.43c7.93,2.85,19.67,3.73,21.13-7.15c0.52-3.88,0.65-8.8-1.94-12.02
						c-2.61-3.26-8.31-5.68-12.12-7.03c-7.32-2.59-21.64-1.67-26.02,5.62C1833.51,914.35,1828.26,906.78,1830.72,902.68
						L1830.72,902.68z"/>
				</g>
			</g>
			<g>
				<g class="st2">
					<circle class="st3" cx="773.42" cy="472.8" r="32.1"/>
				</g>
				<path class="st4" d="M800.44,473.52c0.16,4.97-2.05,10.24-5.01,14.16c-3.14,4.15-7.16,7.21-12.07,8.96
					c-1.73,0.62-3.89-0.87-4.22-2.59c-0.39-2.03,0.74-3.56,2.59-4.22c0.76-0.27-0.59,0.26,0.09-0.03c0.24-0.1,0.48-0.2,0.71-0.31
					c0.47-0.21,0.93-0.45,1.38-0.7c0.41-0.23,0.82-0.47,1.21-0.73c0.22-0.14,0.43-0.29,0.64-0.43c0.36-0.24-0.52,0.42,0,0
					c0.81-0.65,1.59-1.32,2.32-2.06c0.33-0.34,0.65-0.69,0.97-1.05c0.07-0.08,0.61-0.76,0.3-0.35c-0.31,0.41,0.21-0.29,0.27-0.37
					c0.59-0.8,1.13-1.64,1.62-2.51c0.25-0.45,0.48-0.92,0.72-1.39c0.29-0.59-0.15,0.38,0.01-0.01c0.1-0.24,0.2-0.48,0.3-0.72
					c0.38-0.98,0.7-1.99,0.94-3.01c0.07-0.29,0.13-0.57,0.18-0.86c-0.11,0.6-0.01,0,0.02-0.27c0.06-0.59,0.07-1.17,0.05-1.76
					c-0.06-1.83,1.82-3.52,3.62-3.38C799.05,470.06,800.37,471.55,800.44,473.52L800.44,473.52z"/>
				<circle class="st4" cx="772.03" cy="496.09" r="3.18"/>
			</g>
			<g>
				<g class="st2">
					<circle class="st3" cx="1546.92" cy="181.8" r="32.1"/>
				</g>
				<path class="st4" d="M1573.94,182.52c0.16,4.97-2.05,10.24-5.01,14.16c-3.14,4.15-7.16,7.21-12.07,8.96
					c-1.73,0.62-3.89-0.87-4.22-2.59c-0.39-2.03,0.74-3.56,2.59-4.22c0.76-0.27-0.59,0.26,0.09-0.03c0.24-0.1,0.48-0.2,0.71-0.31
					c0.47-0.21,0.93-0.45,1.38-0.7c0.41-0.23,0.82-0.47,1.21-0.73c0.22-0.14,0.43-0.29,0.64-0.43c0.36-0.24-0.52,0.42,0,0
					c0.81-0.65,1.59-1.32,2.32-2.06c0.33-0.34,0.65-0.69,0.97-1.05c0.07-0.08,0.61-0.76,0.3-0.35c-0.31,0.41,0.21-0.29,0.27-0.37
					c0.59-0.8,1.13-1.64,1.62-2.51c0.25-0.45,0.48-0.92,0.72-1.39c0.29-0.59-0.15,0.38,0.01-0.01c0.1-0.24,0.2-0.48,0.3-0.72
					c0.38-0.98,0.7-1.99,0.94-3.01c0.07-0.29,0.13-0.57,0.18-0.86c-0.11,0.6-0.01,0,0.02-0.27c0.06-0.59,0.07-1.17,0.05-1.76
					c-0.06-1.83,1.82-3.52,3.62-3.38C1572.55,179.06,1573.88,180.56,1573.94,182.52L1573.94,182.52z"/>
				<circle class="st4" cx="1545.54" cy="205.1" r="3.18"/>
			</g>
			<g>
				<g class="st2">
					<circle class="st3" cx="356.9" cy="394" r="32.1"/>
				</g>
				<path class="st4" d="M383.92,394.72c0.16,4.97-2.05,10.24-5.01,14.16c-3.14,4.15-7.16,7.21-12.07,8.96
					c-1.73,0.62-3.89-0.87-4.22-2.59c-0.39-2.03,0.74-3.56,2.59-4.22c0.76-0.27-0.59,0.26,0.09-0.03c0.24-0.1,0.48-0.2,0.71-0.31
					c0.47-0.21,0.93-0.45,1.38-0.7c0.41-0.23,0.82-0.47,1.21-0.73c0.22-0.14,0.43-0.29,0.64-0.43c0.36-0.24-0.52,0.42,0,0
					c0.81-0.65,1.59-1.32,2.32-2.06c0.33-0.34,0.65-0.69,0.97-1.05c0.07-0.08,0.61-0.76,0.3-0.35c-0.31,0.41,0.21-0.29,0.27-0.37
					c0.59-0.8,1.13-1.64,1.62-2.51c0.25-0.45,0.48-0.92,0.72-1.39c0.29-0.59-0.15,0.38,0.01-0.01c0.1-0.24,0.2-0.48,0.3-0.72
					c0.38-0.98,0.7-1.99,0.94-3.01c0.07-0.29,0.13-0.57,0.18-0.86c-0.11,0.6-0.01,0,0.02-0.27c0.06-0.59,0.07-1.17,0.05-1.76
					c-0.06-1.83,1.82-3.52,3.62-3.38C382.53,391.26,383.86,392.76,383.92,394.72L383.92,394.72z"/>
				<circle class="st4" cx="355.52" cy="417.3" r="3.18"/>
			</g>
			<g>
				<g class="st2">
					<circle class="st3" cx="652.61" cy="996.55" r="32.1"/>
				</g>
				<path class="st4" d="M679.63,997.27c0.16,4.97-2.05,10.24-5.01,14.16c-3.14,4.15-7.16,7.21-12.07,8.96
					c-1.73,0.62-3.89-0.87-4.22-2.59c-0.39-2.03,0.74-3.56,2.59-4.22c0.76-0.27-0.59,0.26,0.09-0.03c0.24-0.1,0.48-0.2,0.71-0.31
					c0.47-0.21,0.93-0.45,1.38-0.7c0.41-0.23,0.82-0.47,1.21-0.73c0.22-0.14,0.43-0.29,0.64-0.43c0.36-0.24-0.52,0.42,0,0
					c0.81-0.65,1.59-1.32,2.32-2.06c0.33-0.34,0.65-0.69,0.97-1.05c0.07-0.08,0.61-0.76,0.3-0.35c-0.31,0.41,0.21-0.29,0.27-0.37
					c0.59-0.8,1.13-1.64,1.62-2.51c0.25-0.45,0.48-0.92,0.72-1.39c0.29-0.59-0.15,0.38,0.01-0.01c0.1-0.24,0.2-0.48,0.3-0.72
					c0.38-0.98,0.7-1.99,0.94-3.01c0.07-0.29,0.13-0.57,0.18-0.86c-0.11,0.6-0.01,0,0.02-0.27c0.06-0.59,0.07-1.17,0.05-1.76
					c-0.06-1.83,1.82-3.52,3.62-3.38C678.24,993.81,679.57,995.31,679.63,997.27L679.63,997.27z"/>
				<circle class="st4" cx="651.23" cy="1019.84" r="3.18"/>
			</g>
			<g>
				<g class="st2">
					<circle class="st3" cx="1852.65" cy="345.23" r="32.1"/>
				</g>
				<path class="st4" d="M1879.66,345.95c0.16,4.97-2.05,10.24-5.01,14.16c-3.14,4.15-7.16,7.21-12.07,8.96
					c-1.73,0.62-3.89-0.87-4.22-2.59c-0.39-2.03,0.74-3.56,2.59-4.22c0.76-0.27-0.59,0.26,0.09-0.03c0.24-0.1,0.48-0.2,0.71-0.31
					c0.47-0.21,0.93-0.45,1.38-0.7c0.41-0.23,0.82-0.47,1.21-0.73c0.22-0.14,0.43-0.29,0.64-0.43c0.36-0.24-0.52,0.42,0,0
					c0.81-0.65,1.59-1.32,2.32-2.06c0.33-0.34,0.65-0.69,0.97-1.05c0.07-0.08,0.61-0.76,0.3-0.35c-0.31,0.41,0.21-0.29,0.27-0.37
					c0.59-0.8,1.13-1.64,1.62-2.51c0.25-0.45,0.48-0.92,0.72-1.39c0.29-0.59-0.15,0.38,0.01-0.01c0.1-0.24,0.2-0.48,0.3-0.72
					c0.38-0.98,0.7-1.99,0.94-3.01c0.07-0.29,0.13-0.57,0.18-0.86c-0.11,0.6-0.01,0,0.02-0.27c0.06-0.59,0.07-1.17,0.05-1.76
					c-0.06-1.83,1.82-3.52,3.62-3.38C1878.28,342.49,1879.6,343.99,1879.66,345.95L1879.66,345.95z"/>
				<circle class="st4" cx="1851.26" cy="368.53" r="3.18"/>
			</g>
			<g>
				<g class="st2">
					<circle class="st3" cx="1237.11" cy="588.65" r="32.1"/>
				</g>
				<path class="st4" d="M1264.13,589.37c0.16,4.97-2.05,10.24-5.01,14.16c-3.14,4.15-7.16,7.21-12.07,8.96
					c-1.73,0.62-3.89-0.87-4.22-2.59c-0.39-2.03,0.74-3.56,2.59-4.22c0.76-0.27-0.59,0.26,0.09-0.03c0.24-0.1,0.48-0.2,0.71-0.31
					c0.47-0.21,0.93-0.45,1.38-0.7c0.41-0.23,0.82-0.47,1.21-0.73c0.22-0.14,0.43-0.29,0.64-0.43c0.36-0.24-0.52,0.42,0,0
					c0.81-0.65,1.59-1.32,2.32-2.06c0.33-0.34,0.65-0.69,0.97-1.05c0.07-0.08,0.61-0.76,0.3-0.35c-0.31,0.41,0.21-0.29,0.27-0.37
					c0.59-0.8,1.13-1.64,1.62-2.51c0.25-0.45,0.48-0.92,0.72-1.39c0.29-0.59-0.15,0.38,0.01-0.01c0.1-0.24,0.2-0.48,0.3-0.72
					c0.38-0.98,0.7-1.99,0.94-3.01c0.07-0.29,0.13-0.57,0.18-0.86c-0.11,0.6-0.01,0,0.02-0.27c0.06-0.59,0.07-1.17,0.05-1.76
					c-0.06-1.83,1.82-3.52,3.62-3.38C1262.74,585.91,1264.07,587.41,1264.13,589.37L1264.13,589.37z"/>
				<circle class="st4" cx="1235.72" cy="611.95" r="3.18"/>
			</g>
			<g>
				<g>
					<path class="st6" d="M388.18,553.72c-12.97,1.85-23.49,11.39-29.57,22.55c-2.78,5.1-4.99,11.21-10.99,13.28
						c-5.81,2-11.74-1.62-15.44-5.92c-2.28-2.66-4.06-5.73-5.89-8.71c-1.91-3.11-3.83-6.23-5.75-9.34
						c-3.26-5.3-6.52-11.94-12.5-14.64c-2.33-1.05-5.04-1.45-7.54-0.81c-2.89,0.74-5.07,2.99-6.63,5.43
						c-3.63,5.64-5.28,12.86-2.59,19.19c2.54,5.99,7.62,10.9,11.75,15.81c2.33,2.77,4.66,5.53,6.99,8.3
						c1.14,1.36,2.42,2.7,3.46,4.18c-0.35-0.05-0.69-0.1-1.03-0.15c-2.98-0.5-5.93-1.22-8.87-1.92c-6.05-1.44-12.14-2.96-18.38-3.19
						c-5.56-0.2-11.19,0.75-16.14,3.37c-5.5,2.9-9.47,7.6-11.94,13.28c-2.27,5.25-3.14,11.02-1.25,16.52
						c1.52,4.44,4.69,8.41,8.6,10.99c9.09,5.98,21.13,3.41,29.61-2.35c5.08-3.46,8.81-9.07,14.74-11.2
						c6.04-2.17,11.43,1.01,13.39,6.98c0.93,2.84,0.94,5.88,0.88,8.84c-0.08,3.53-0.22,7.05-0.33,10.58
						c-0.21,6.75-0.67,13.54-0.53,20.29c0.12,5.76,0.97,11.88,4.45,16.65c2.98,4.08,7.39,7.03,12.6,6.66
						c5.9-0.41,10.39-5.12,13.17-9.95c3.29-5.7,4.83-12.35,4.2-18.91c-0.6-6.24-2.58-12.4-5.34-18.01
						c-1.41-2.87-3.32-5.48-4.65-8.39c-0.05-0.1-0.09-0.2-0.14-0.3l0.01,0c-0.03-0.1-0.18-0.61,0.11-1.12
						c0.18-0.32,0.45-0.48,0.57-0.55c0.01-0.01,0.02-0.02,0.03-0.04c0.17-0.19,0.33-0.41,0.47-0.61c1.45-0.32,3.02-0.3,4.28-0.12
						c2.78,0.4,5.4,1.64,7.72,3.16c8.54,5.59,15.08,16.88,26.46,16.82c5.91-0.03,10.11-3.97,12.8-8.95c2.92-5.38,4.6-12,2.49-17.95
						c-4.42-12.48-18.84-15.5-30.43-16.44c-4.93-0.4-12.79-1.04-14.11-7.03c-0.09-0.43-0.01-0.92-0.03-1.36
						c0.02-0.01,0.03-0.03,0.04-0.04c0.47-0.51,1.02-0.96,1.57-1.39c2.83-2.24,6.24-3.63,9.4-5.33c6.08-3.27,11.88-7.1,17.28-11.4
						c4.95-3.94,10.12-8.29,13.89-13.41c3.49-4.74,7.62-12.87,3.71-18.49C399.48,553.84,393.52,552.96,388.18,553.72z
						 M356.82,608.24C356.81,608.06,357.01,607.78,356.82,608.24L356.82,608.24z M399.49,569.14c0.1,0.34,0.05,1.07,0.14,1.51
						c0.05-0.06,0.1-0.13,0.15-0.19c0.41-0.49,0.37-0.35,0.03,0.15c-0.11,0.16-0.08,0.3-0.07,0.33c0,0-0.01-0.02-0.04-0.07
						c-0.03-0.05-0.05-0.13-0.07-0.21c-0.32,0.4-0.63,0.81-0.97,1.2c-0.84,0.97-1.76,1.87-2.67,2.77
						c-4.8,4.7-10.01,8.97-15.57,12.75c-2.76,1.87-5.61,3.61-8.53,5.21c-3.01,1.65-6.17,3.06-9.06,4.91
						c-5.62,3.6-9.69,9.85-10.52,16.53c-0.73,5.91,3,9.72,8.52,11.01c5.76,1.34,11.77,1.07,17.56,2.44
						c5.77,1.37,11.46,3.98,15.37,8.59c1.82,2.15,3.26,4.78,3.83,7.56c0.24,1.18,0.31,2.44,0.16,3.64
						c-0.01,0.11-0.08,0.48-0.13,0.72c0,0.01,0,0.02-0.01,0.03l0,0.04c0.06-0.08,0.11-0.13,0.12-0.14
						c-0.01,0.02-0.03,0.06-0.09,0.14c-0.02,0.02-0.03,0.05-0.05,0.07c0,0,0,0.01,0,0.01c0,0.02-0.01,0.04-0.01,0.07c0,0,0,0,0,0
						c0-0.01,0.01-0.03,0.01-0.07c-0.06,0.08-0.09,0.09-0.1,0.07c-0.16,0.19-0.34,0.42-0.37,0.46c-0.32,0.33-0.69,0.64-1.06,0.91
						c-0.89,0.67-1.9,1.13-2.97,1.46c-2.3,0.71-4.67,0.6-6.97,0c-4.81-1.25-8.9-4.33-12.49-7.65c-4.11-3.8-8.06-8.09-13.24-10.44
						c-4.61-2.09-9.59-2.12-13.46,0.9c-0.3,0.23-0.59,0.48-0.87,0.75c-0.02,0.02-0.05,0.04-0.07,0.07c-0.65,0.66-1.21,1.43-1.7,2.21
						c0,0.01-0.01,0.02-0.01,0.02c-0.25,0.4-0.48,0.8-0.7,1.18c-1.56,2.83-2.88,6.4-2.42,9.69c0.4,2.89,1.93,5.28,3.4,7.74
						c1.67,2.79,3.11,5.7,4.3,8.73c2.06,5.29,3.74,11.23,3.27,16.97c-0.09,1.07-0.38,2.15-0.58,3.08c0.04-0.07,0.07-0.12,0.08-0.14
						c-0.01,0.02-0.04,0.08-0.09,0.18c-0.12,0.56-0.09,0.17-0.02,0.03c0.01-0.01,0.01-0.02,0.02-0.03c0-0.02,0.01-0.03,0.01-0.04
						c-0.05,0.1-0.11,0.22-0.15,0.28c0.01-0.01,0.01-0.02,0.02-0.02c-0.01,0.01-0.02,0.03-0.03,0.05c0-0.01,0-0.01,0.01-0.02
						c-0.12,0.15-0.43,0.54-0.47,0.59c-1.53,1.91-3.72,3.3-6.06,3.98c-4.94,1.44-10.02-1.04-13.18-4.85
						c-3.58-4.31-4.67-9.94-4.85-15.4c-0.22-6.46,0.24-12.98,0.45-19.44c0.2-6.29,1.03-12.93,0.04-19.18
						c-0.84-5.25-4.01-10.98-9.89-11.48c-5.82-0.49-10.65,3.33-14.66,7.06c-4.21,3.9-8.37,7.28-13.89,9.14
						c-9.52,3.2-20.59,1.06-26.35-7.7c-2.26-3.45-3.75-8.04-2.9-11.9c-0.02,0.04-0.05,0.08-0.06,0.11c0.01-0.04,0.03-0.12,0.05-0.19
						l0,0l0-0.01c0.02-0.07,0.04-0.13,0.05-0.14c0,0.01,0,0.04-0.01,0.08c0.01,0,0.01,0,0.01,0c0-0.01,0.01-0.01,0.01-0.01
						c0.01-0.02,0.03-0.04,0.05-0.07c0-0.01,0-0.01,0.01-0.01c0.01-0.02,0.03-0.04,0.04-0.05c0-0.01,0.01-0.01,0.01-0.02
						c0-0.01,0-0.01,0.01-0.01c0.04-0.05,0.08-0.11,0.13-0.17c0.71-0.89,1.45-1.69,2.32-2.43c2.04-1.73,4.43-3,6.93-3.93
						c11.22-4.17,22.93-0.39,34.06,2.12c2.71,0.61,5.57,1.44,8.37,1.33c3.59-0.14,5.61-3.06,6.94-6.11
						c1.17-2.68,1.92-5.62,0.81-8.44c-0.99-2.5-2.98-4.5-4.68-6.52c-4.39-5.21-8.82-10.4-13.18-15.64
						c-3.52-4.24-7.22-9.11-6.92-14.87c-0.07,0.07-0.17,0.15-0.26,0.23c-0.08,0.22-0.18,0.37-0.28,0.35
						c-0.06-0.01,0.1-0.18,0.28-0.35c0.26-0.66,0.39-1.93,0.28-0.65c-0.01,0.14-0.02,0.28-0.03,0.43c0.08-0.07,0.15-0.13,0.17-0.14
						c0.9-0.74,2.02-1.17,3.15-1.4c2.53-0.5,5.21,0.28,7.41,1.53c5.71,3.26,8.83,10.17,12.14,15.56
						c3.47,5.65,6.65,11.81,11.07,16.79c3.59,4.04,8.77,7.07,14.34,6.07c6.2-1.11,10.4-6.99,13.33-12.07
						c1.53-2.65,2.76-5.46,4.32-8.09c1.49-2.51,3.4-4.77,5.54-6.75c4.49-4.16,9.97-7.18,15.89-8.72c5.01-1.3,11.02-1.45,15.14,2.21
						C398.19,566.39,399.07,567.68,399.49,569.14z"/>
					<path class="st6" d="M346,634.65c-0.16,0.16-0.33,0.32-0.48,0.49c-0.45,0.48-0.86,1.07-1.22,1.72
						C344.79,636.07,345.35,635.3,346,634.65z"/>
					<path class="st6" d="M346.95,633.83c-0.31,0.22-0.6,0.47-0.87,0.75C346.36,634.31,346.65,634.06,346.95,633.83z"/>
					<path class="st6" d="M338.9,619.56"/>
					<path class="st6" d="M340.13,621.5c-3.41,2.39-8.48,0.09-10.87-2.73c-1.32-1.56-2.38-3.2-2.17-5.32
						c0.18-1.8,1.08-3.81,2.27-5.17c5.69-6.53,16.72,6.84,11.66,12.59c-1.24,1.4-2.3-0.84-1.32-1.95c1.72-1.96-1.61-6.18-2.98-7.49
						c-1.76-1.69-4.77-3.3-6.44-0.59c-0.59,0.97-1.21,2.25-0.9,3.41c0.31,1.17,1.53,2.48,2.38,3.29c1.63,1.55,5.53,2.99,7.55,1.58
						C340.77,618.08,341.26,620.7,340.13,621.5L340.13,621.5z"/>
				</g>
			</g>
			<g>
				<g class="st2">
					<circle class="st3" cx="-41.42" cy="347.5" r="148.19"/>
				</g>
				<path class="st4" d="M81.44,369.38c-2.7,22.8-16.42,45.35-32.62,61.2c-17.18,16.8-37.67,27.99-61.28,32.61
					c-8.32,1.63-17.14-6.64-17.47-14.72c-0.39-9.53,5.8-15.73,14.72-17.47c3.67-0.72-2.89,0.79,0.44-0.07
					c1.16-0.3,2.31-0.59,3.46-0.92c2.29-0.66,4.55-1.41,6.78-2.24c2.04-0.76,4.06-1.6,6.05-2.5c1.08-0.49,2.14-1.04,3.22-1.54
					c1.82-0.83-2.67,1.55-0.02,0.01c4.14-2.4,8.17-4.91,12-7.8c1.75-1.32,3.46-2.7,5.13-4.12c0.36-0.31,3.31-3.04,1.61-1.39
					c-1.71,1.65,1.18-1.18,1.51-1.51c3.25-3.25,6.3-6.71,9.12-10.35c1.47-1.9,2.84-3.87,4.22-5.83c1.75-2.48-0.95,1.65,0.04-0.05
					c0.6-1.04,1.25-2.05,1.84-3.09c2.42-4.21,4.57-8.59,6.37-13.1c0.5-1.26,0.97-2.54,1.41-3.82c-0.92,2.68-0.05-0.01,0.25-1.21
					c0.67-2.63,1.13-5.29,1.45-7.99c1-8.4,10.72-14.81,18.84-12.93C77.49,352.63,82.5,360.38,81.44,369.38L81.44,369.38z"/>
				<circle class="st4" cx="-63.78" cy="452.89" r="14.69"/>
			</g>
			<g>
				<g>
					<path class="st5" d="M44.14,891.99c6.89-2.21,8.65-11.69,8.77-17.91c0.12-6.72-1.43-13.7-3.05-20.19
						c-1.77-7.08-4.18-14.02-7.19-20.67c-1.56-3.45-3.53-6.82-4.47-10.52c-0.18-0.71-0.36-1.44-0.42-2.17c0-0.02,0-0.04-0.01-0.06
						c0.3-0.35,0.55-0.82,0.9-1.12c4.97-4.18,11.97,0.34,16.37,3.17c10.34,6.65,24.39,13.39,36.12,5.74
						c5.6-3.64,8.44-10.28,9.45-16.67c0.94-5.91-0.05-11.91-5-15.74c-9.52-7.36-22.27-2.09-33.03-2.88
						c-2.94-0.21-5.93-0.86-8.52-2.31c-1.18-0.66-2.51-1.66-3.52-2.85c0.02-0.26,0.03-0.55,0-0.82c0-0.02,0-0.03,0-0.05
						c-0.06-0.13-0.18-0.44-0.13-0.83c0.09-0.61,0.54-0.95,0.63-1.01l-0.01,0c0.1-0.05,0.2-0.11,0.31-0.16
						c2.98-1.58,6.27-2.55,9.3-4.05c5.92-2.94,11.55-6.83,16.06-11.69c4.74-5.11,7.71-11.68,8.62-18.58
						c0.77-5.85,0.03-12.69-4.67-16.82c-4.14-3.65-9.74-4.01-14.86-2.5c-5.99,1.77-10.63,6.36-14.43,11.12
						c-4.45,5.58-8.44,11.58-12.6,17.38c-2.17,3.03-4.32,6.09-6.52,9.1c-1.85,2.53-3.81,5.07-6.42,6.86
						c-5.47,3.75-12.05,2.95-15.73-2.75c-3.61-5.59-3.13-12.71-5.18-18.87c-3.41-10.29-11.88-20.18-23.35-21
						c-4.94-0.35-10.15,0.95-14.28,3.7c-5.12,3.41-8.1,8.81-9.56,14.68c-1.58,6.35-1.26,12.85,1.49,18.82
						c2.48,5.38,6.59,9.8,11.39,13.2c5.39,3.82,11.48,6.46,17.49,9.14c2.92,1.3,5.86,2.59,8.68,4.09c0.32,0.17,0.64,0.35,0.96,0.53
						c-1.82,0.58-3.76,0.88-5.59,1.29c-3.74,0.83-7.47,1.65-11.2,2.47c-6.63,1.46-14.04,2.32-20.03,5.72
						c-6.33,3.59-9.58,10.72-10.16,17.78c-0.25,3.05,0.13,6.34,2.08,8.82c1.69,2.14,4.22,3.55,6.85,4.16
						c6.76,1.57,13.75-1.9,19.9-4.26c3.61-1.38,7.22-2.77,10.83-4.15c3.45-1.32,6.91-2.76,10.54-3.53
						c5.87-1.24,13.17-0.47,16.77,4.95c3.71,5.6,1.64,12.14,0.7,18.22c-2.07,13.28,0.64,28.05,10.35,37.94
						C32.76,890.76,38.33,893.86,44.14,891.99z M37.47,820.76C37.33,821.27,37.35,820.91,37.47,820.76L37.47,820.76z M43.72,882.62
						c-5.8,0.43-10.76-3.56-14.13-7.87c-3.99-5.1-6.65-11.16-7.74-17.53c-0.52-3.04-0.67-6.16-0.31-9.22
						c0.38-3.21,1.15-6.37,1.57-9.57c0.81-6.14,1.06-13.78-3.44-18.7c-4.04-4.42-10.34-5.21-15.94-4.12
						c-6.92,1.34-13.54,4.47-20.09,6.98c-6.25,2.39-13.31,6.2-20.2,5.26c-2.64-0.36-5.4-1.43-7.21-3.47c-0.81-0.91-1.47-2-1.75-3.2
						c-0.01-0.03-0.03-0.12-0.05-0.23c-0.09,0.12-0.17,0.25-0.25,0.38c-0.73,1.14-0.03-0.01,0.18-0.73
						c-0.04-0.26-0.07-0.51-0.01-0.48c0.1,0.05,0.09,0.24,0.01,0.48c0.02,0.12,0.05,0.25,0.07,0.36c3.45-5.03,9.69-6.74,15.37-8.04
						c7.03-1.6,14.08-3.11,21.12-4.67c2.73-0.6,5.68-1,8.12-2.47c2.75-1.65,4-4.61,4.74-7.61c0.85-3.42,1.03-7.17-1.9-9.59
						c-2.27-1.89-5.22-3.04-7.88-4.26c-10.96-5.04-23.22-9.39-29.96-20.11c-1.5-2.39-2.69-4.98-3.29-7.75
						c-0.26-1.18-0.37-2.33-0.39-3.53c0-0.07,0-0.15,0-0.22c0,0,0-0.01,0-0.01c0-0.01,0-0.01,0-0.02c0-0.02,0-0.04,0-0.07
						c0-0.01,0-0.01,0-0.02c0-0.04,0-0.07,0.01-0.09c0-0.01,0-0.01,0-0.02c0,0,0,0,0-0.01c-0.02,0.04-0.03,0.07-0.04,0.08
						c0-0.02,0.02-0.08,0.05-0.15l0,0l0,0c0.03-0.07,0.06-0.15,0.08-0.19c0,0.03-0.01,0.08-0.02,0.13
						c1.77-3.79,5.96-6.69,10.08-8.13c10.47-3.66,21.13,1.66,27.07,10.46c3.44,5.11,4.77,10.61,5.79,16.6
						c0.98,5.71,2.58,12.02,7.78,15.35c5.26,3.36,11.61,0.59,15.69-3.28c4.85-4.61,8.42-10.72,12.29-16.13
						c3.98-5.56,7.77-11.33,12.11-16.61c3.67-4.46,8.2-8.5,13.98-9.82c5.1-1.17,10.96,0.01,14.18,4.39
						c1.53,2.08,2.47,4.65,2.53,7.24c0,0.07,0.01,0.6,0.02,0.8c0-0.01,0-0.02,0.01-0.02c0,0.03,0,0.05,0,0.06c0-0.01,0-0.02,0-0.03
						c-0.01,0.07-0.03,0.21-0.05,0.33c0.01-0.02,0.01-0.03,0.02-0.04c0-0.01,0.01-0.02,0.01-0.04c0.03-0.17,0.25-0.51-0.01,0.04
						c-0.03,0.13-0.04,0.19-0.04,0.21c0-0.02,0.01-0.09,0.02-0.17c-0.43,0.91-0.88,2.01-1.49,2.96c-3.29,5.12-8.51,9.03-13.65,12.15
						c-2.94,1.78-6.03,3.3-9.22,4.57c-2.81,1.12-5.63,2.15-7.83,4.32c-2.5,2.47-3.69,6.3-4.2,9.69c-0.07,0.46-0.13,0.95-0.18,1.44
						c0,0.01,0,0.02-0.01,0.03c-0.09,0.97-0.11,1.98,0.01,2.95c0,0.04,0.01,0.07,0.02,0.1c0.07,0.41,0.15,0.8,0.25,1.18
						c1.32,5.03,5.51,8.21,10.72,9.41c5.86,1.35,11.93,0.29,17.82-0.26c5.15-0.48,10.55-0.44,15.4,1.6
						c2.32,0.98,4.38,2.41,5.85,4.48c0.68,0.96,1.23,2,1.55,3.14c0.13,0.47,0.25,0.96,0.3,1.45c0,0.05,0.01,0.36,0.02,0.62
						c0.02-0.01,0.03,0.02,0.04,0.12c0.02-0.03,0.03-0.06,0.03-0.07c0,0,0,0,0,0c-0.01,0.02-0.02,0.04-0.03,0.06c0,0,0,0,0,0.01
						c0,0.02,0,0.05,0,0.09c0,0.1-0.01,0.15-0.02,0.17c0-0.02-0.01-0.09-0.01-0.2l-0.02,0.04c-0.01,0.01-0.01,0.02-0.01,0.03
						c-0.12,0.23-0.3,0.59-0.36,0.69c-0.64,1.1-1.51,2.12-2.47,2.95c-2.27,1.96-5.16,3.26-8.07,3.89
						c-6.24,1.35-12.7-0.11-18.43-2.67c-5.74-2.56-10.61-6.65-16.31-9.23c-5.47-2.47-11.05-1.66-14.23,3.77
						c-3.6,6.15-4.2,14.01-1.79,20.64c1.24,3.42,2.99,6.62,4.46,9.94c1.42,3.23,2.7,6.52,3.81,9.86c2.24,6.74,3.87,13.68,4.88,20.71
						c0.19,1.34,0.38,2.68,0.46,4.04c0.03,0.54,0.03,1.08,0.05,1.63c0.07-0.06,0.14-0.1,0.2-0.13c0.06-0.02,0.08-0.04,0.08-0.04
						c-0.02,0.02-0.14,0.12-0.15,0.32c-0.03,0.63-0.09,0.78-0.12,0.1c0-0.08-0.01-0.17-0.01-0.25c-0.36,0.3-0.78,0.95-1.09,1.17
						C46.89,881.97,45.31,882.49,43.72,882.62z"/>
					<path class="st5" d="M45.36,791.64c-0.04-0.24-0.07-0.48-0.09-0.72c-0.07-0.69-0.03-1.45,0.08-2.23
						C45.25,789.66,45.23,790.67,45.36,791.64z"/>
					<path class="st5" d="M45.62,792.93c-0.12-0.39-0.2-0.78-0.25-1.18C45.44,792.15,45.52,792.54,45.62,792.93z"/>
					<path class="st5" d="M29.69,799.73"/>
					<path class="st5" d="M31.97,798.9c-1.33-4.2-7.06-5.53-10.88-4.69c-2.11,0.46-4.05,1.15-5.24,3.08c-1,1.63-1.54,3.89-1.42,5.8
						c0.58,9.14,18.43,5,17.88-3.08c-0.14-1.97-2.47-0.77-2.36,0.79c0.19,2.75-5.33,4.15-7.32,4.37c-2.57,0.29-6.13-0.29-5.79-3.64
						c0.12-1.19,0.43-2.67,1.43-3.44c1.01-0.78,2.88-1.1,4.11-1.23c2.37-0.25,6.57,1.04,7.36,3.53
						C30.31,802.18,32.42,800.3,31.97,798.9L31.97,798.9z"/>
				</g>
			</g>
			<g>
				<g class="st2">
					<circle class="st3" cx="1205.01" cy="0" r="74.43"/>
				</g>
				<path class="st4" d="M1267.66,1.67c0.36,11.53-4.76,23.75-11.62,32.84c-7.27,9.63-16.61,16.72-27.99,20.78
					c-4.01,1.43-9.01-2.02-9.78-6c-0.91-4.71,1.71-8.24,6-9.78c1.77-0.63-1.38,0.61,0.21-0.07c0.55-0.23,1.1-0.47,1.65-0.72
					c1.09-0.5,2.16-1.04,3.2-1.62c0.96-0.53,1.9-1.1,2.82-1.7c0.5-0.33,0.99-0.68,1.49-1c0.84-0.55-1.21,0.97-0.01,0.01
					c1.88-1.5,3.69-3.05,5.38-4.77c0.77-0.79,1.52-1.6,2.24-2.43c0.16-0.18,1.42-1.76,0.69-0.81c-0.73,0.95,0.5-0.67,0.64-0.86
					c1.37-1.86,2.63-3.81,3.75-5.82c0.59-1.05,1.12-2.13,1.66-3.21c0.68-1.36-0.35,0.89,0.02-0.03c0.22-0.56,0.47-1.11,0.68-1.67
					c0.89-2.27,1.63-4.61,2.18-6.98c0.15-0.66,0.29-1.33,0.42-2c-0.26,1.4-0.03,0,0.03-0.62c0.13-1.36,0.16-2.71,0.12-4.07
					c-0.13-4.25,4.22-8.16,8.39-7.83C1264.45-6.36,1267.52-2.88,1267.66,1.67L1267.66,1.67z"/>
				<circle class="st4" cx="1201.79" cy="54.02" r="7.38"/>
			</g>
			<g>
				<path class="st7" d="M532.5,1066.06c2.26-6.87-4.37-13.87-9.35-17.62c-5.37-4.05-11.93-6.89-18.13-9.39
					c-6.77-2.72-13.81-4.85-20.95-6.33c-3.71-0.77-7.59-1.15-11.13-2.56c-0.68-0.27-1.38-0.56-2.01-0.93
					c-0.02-0.01-0.04-0.02-0.06-0.03c-0.11-0.45-0.34-0.93-0.38-1.39c-0.46-6.47,7.3-9.49,12.18-11.39
					c11.46-4.46,25.16-11.87,25.87-25.86c0.34-6.67-3.36-12.86-7.94-17.44c-4.23-4.23-9.67-6.96-15.67-5.2
					c-11.55,3.38-14.77,16.79-21.73,25.04c-1.9,2.25-4.18,4.29-6.87,5.54c-1.23,0.57-2.81,1.05-4.38,1.17
					c-0.2-0.17-0.43-0.34-0.66-0.48c-0.01-0.01-0.02-0.02-0.04-0.03c-0.14-0.03-0.46-0.11-0.75-0.38c-0.45-0.43-0.45-1-0.45-1.1
					l-0.01,0.01c0.02-0.12,0.03-0.23,0.05-0.35c0.47-3.34,1.62-6.57,2.18-9.91c1.1-6.52,1.25-13.36-0.03-19.86
					c-1.35-6.83-4.92-13.11-9.97-17.89c-4.28-4.06-10.26-7.48-16.36-6.11c-5.39,1.21-8.97,5.53-10.76,10.56
					c-2.09,5.88-1.1,12.34,0.52,18.21c1.9,6.88,4.41,13.63,6.67,20.41c1.18,3.54,2.39,7.07,3.53,10.62
					c0.96,2.98,1.86,6.07,1.78,9.23c-0.18,6.63-4.69,11.49-11.46,11.11c-6.64-0.37-12.12-4.93-18.32-6.9
					c-10.33-3.29-23.31-2.24-30.71,6.56c-3.19,3.8-5.19,8.77-5.4,13.73c-0.25,6.14,2.37,11.73,6.26,16.36
					c4.21,5.01,9.65,8.57,16.11,9.85c5.81,1.15,11.81,0.42,17.37-1.47c6.26-2.12,11.97-5.5,17.67-8.78c2.77-1.6,5.54-3.22,8.41-4.62
					c0.33-0.16,0.66-0.32,1-0.47c-0.6,1.81-1.49,3.56-2.24,5.28c-1.53,3.51-3.05,7.01-4.58,10.52c-2.71,6.22-6.37,12.73-7.14,19.57
					c-0.81,7.23,3.05,14.05,8.42,18.66c2.32,2,5.21,3.62,8.36,3.5c2.72-0.11,5.35-1.33,7.39-3.1c5.24-4.54,6.54-12.25,8.24-18.61
					c1-3.73,2-7.47,3-11.2c0.95-3.57,1.83-7.22,3.34-10.6c2.45-5.48,7.36-10.93,13.86-10.66c6.71,0.28,10.79,5.81,15.15,10.14
					c9.53,9.47,23.07,15.96,36.78,13.91C524.82,1074.54,530.6,1071.85,532.5,1066.06z M470.94,1029.61
					C471.27,1030.02,470.99,1029.79,470.94,1029.61L470.94,1029.61z M524.67,1060.89c-3.06,4.95-9.2,6.61-14.67,6.81
					c-6.47,0.23-12.93-1.18-18.74-4.03c-2.76-1.36-5.38-3.07-7.65-5.16c-2.37-2.2-4.47-4.67-6.82-6.9
					c-4.5-4.26-10.53-8.95-17.15-8.2c-5.95,0.67-10.29,5.3-12.7,10.48c-2.98,6.39-4.33,13.58-6.15,20.36
					c-1.73,6.46-2.8,14.41-7.61,19.44c-1.85,1.93-4.33,3.53-7.04,3.79c-1.21,0.12-2.48,0.02-3.62-0.46
					c-0.03-0.01-0.11-0.05-0.21-0.1c0.05,0.14,0.1,0.28,0.16,0.42c0.49,1.26-0.02,0.02-0.49-0.58c-0.24-0.12-0.45-0.24-0.39-0.27
					c0.1-0.05,0.25,0.07,0.39,0.27c0.11,0.05,0.23,0.11,0.33,0.15c-2.04-5.75,0.24-11.8,2.52-17.16c2.83-6.63,5.75-13.22,8.63-19.83
					c1.11-2.56,2.53-5.19,2.77-8.02c0.28-3.19-1.38-5.94-3.37-8.31c-2.27-2.7-5.2-5.05-8.88-4.1c-2.86,0.73-5.52,2.44-8.08,3.87
					c-10.52,5.91-21.25,13.28-33.87,12.44c-2.82-0.19-5.61-0.75-8.2-1.89c-1.11-0.48-2.1-1.07-3.09-1.76
					c-0.06-0.04-0.12-0.09-0.18-0.13c0,0-0.01,0-0.01-0.01c-0.01,0-0.01-0.01-0.02-0.01c-0.01-0.01-0.03-0.02-0.05-0.04
					c-0.01,0-0.01,0-0.01-0.01c-0.03-0.03-0.06-0.04-0.07-0.06c-0.01,0-0.01,0-0.02-0.01c0-0.01,0-0.01-0.01,0
					c0.02,0.04,0.04,0.07,0.04,0.08c-0.02-0.01-0.05-0.07-0.09-0.13l0,0l0,0c-0.04-0.07-0.08-0.13-0.11-0.17
					c0.02,0.02,0.06,0.05,0.09,0.09c-2.03-3.66-1.91-8.76-0.66-12.94c3.19-10.62,13.76-16.13,24.37-15.76
					c6.15,0.21,11.39,2.38,16.84,5.06c5.2,2.56,11.24,4.97,16.99,2.72c5.81-2.28,7.29-9.05,6.56-14.62
					c-0.88-6.63-3.73-13.11-5.83-19.42c-2.16-6.48-4.6-12.94-6.33-19.56c-1.46-5.59-2.06-11.63,0.27-17.08
					c2.05-4.82,6.44-8.86,11.89-8.9c2.58-0.02,5.22,0.73,7.35,2.2c0.05,0.04,0.49,0.34,0.66,0.46c-0.01-0.01-0.01-0.01-0.02-0.02
					c0.02,0.02,0.04,0.03,0.05,0.04c-0.01,0-0.02-0.01-0.03-0.02c0.05,0.05,0.15,0.15,0.23,0.24c-0.01-0.02-0.02-0.03-0.02-0.04
					c-0.01-0.01-0.02-0.02-0.03-0.03c-0.12-0.12-0.26-0.5,0.03,0.03c0.09,0.09,0.13,0.15,0.15,0.16c-0.01-0.01-0.06-0.06-0.12-0.12
					c0.49,0.89,1.11,1.89,1.52,2.95c2.21,5.67,2.31,12.2,1.82,18.18c-0.28,3.43-0.87,6.82-1.72,10.15c-0.75,2.94-1.57,5.82-1.1,8.87
					c0.53,3.47,2.94,6.69,5.38,9.09c0.33,0.33,0.69,0.66,1.06,0.99c0.01,0.01,0.01,0.01,0.02,0.02c0.73,0.64,1.54,1.25,2.39,1.72
					c0.03,0.02,0.06,0.04,0.09,0.05c0.37,0.19,0.73,0.35,1.11,0.49c4.84,1.89,9.88,0.36,13.91-3.15c4.54-3.95,7.24-9.49,10.26-14.58
					c2.63-4.45,5.84-8.8,10.34-11.52c2.16-1.3,4.52-2.13,7.06-2.1c1.18,0.01,2.35,0.18,3.45,0.59c0.46,0.17,0.93,0.37,1.35,0.61
					c0.05,0.03,0.3,0.21,0.52,0.35c0-0.02,0.03-0.01,0.12,0.04c-0.02-0.03-0.03-0.05-0.03-0.06c0,0,0,0,0,0
					c0.01,0.02,0.02,0.04,0.03,0.06c0,0,0,0.01,0.01,0.01c0.02,0.02,0.04,0.03,0.07,0.05c0.08,0.06,0.12,0.09,0.13,0.11
					c-0.02-0.01-0.08-0.05-0.16-0.11l0.02,0.04c0,0.01,0.01,0.02,0.01,0.03c0.12,0.23,0.3,0.59,0.35,0.69
					c0.51,1.17,0.83,2.46,0.94,3.73c0.26,2.99-0.4,6.09-1.6,8.82c-2.57,5.85-7.55,10.21-12.99,13.35
					c-5.45,3.14-11.62,4.68-17.05,7.78c-5.21,2.98-7.84,7.96-5.31,13.73c2.86,6.52,8.87,11.63,15.66,13.58
					c3.49,1,7.12,1.47,10.67,2.23c3.45,0.75,6.86,1.64,10.22,2.71c6.77,2.15,13.35,4.9,19.63,8.21c1.2,0.63,2.4,1.27,3.54,2
					c0.46,0.29,0.89,0.61,1.34,0.92c-0.01-0.09-0.01-0.17,0.01-0.23c0.01-0.06,0.02-0.08,0.02-0.09c0.01,0.03,0.02,0.18,0.17,0.31
					c0.49,0.4,0.58,0.53,0.01,0.16c-0.07-0.05-0.14-0.09-0.21-0.14c0.03,0.47,0.31,1.19,0.31,1.57
					C526.01,1057.95,525.51,1059.53,524.67,1060.89z"/>
				<path class="st7" d="M452,1006.12c-0.21-0.11-0.43-0.22-0.64-0.35c-0.6-0.35-1.19-0.82-1.75-1.37
					C450.34,1005.04,451.15,1005.65,452,1006.12z"/>
				<path class="st7" d="M453.2,1006.66c-0.38-0.13-0.75-0.3-1.11-0.49C452.47,1006.35,452.83,1006.52,453.2,1006.66z"/>
				<path class="st7" d="M449.36,1023.55"/>
				<path class="st7" d="M450.02,1021.22c-4.18-1.39-8.62,2.47-10.19,6.05c-0.86,1.98-1.45,3.96-0.59,6.05
					c0.73,1.77,2.25,3.54,3.86,4.56c7.74,4.9,14.87-11.98,8.01-16.28c-1.68-1.05-2.08,1.54-0.75,2.38c2.34,1.46,0.23,6.75-0.76,8.49
					c-1.28,2.25-3.83,4.79-6.34,2.55c-0.89-0.8-1.9-1.92-1.94-3.18c-0.04-1.28,0.8-2.98,1.42-4.05c1.19-2.06,4.7-4.7,7.18-3.88
					C451.7,1024.49,451.41,1021.68,450.02,1021.22L450.02,1021.22z"/>
			</g>
			<g>
				<g>
					<path class="st8" d="M1558.14,81.77c3.81-14.82-1.77-30.44-11.09-41.99c-4.26-5.28-9.86-10.4-9.41-17.8
						c0.44-7.17,7-11.94,13.29-14c3.89-1.28,8-1.82,12.03-2.46c4.21-0.67,8.43-1.35,12.65-2.02c7.18-1.15,15.79-1.69,21.38-6.93
						c2.17-2.04,3.82-4.79,4.24-7.77c0.49-3.45-0.96-6.8-2.89-9.58c-4.46-6.43-11.51-11.45-19.54-11.38
						c-7.6,0.06-15.17,3.34-22.31,5.61c-4.03,1.28-8.05,2.55-12.08,3.83c-1.97,0.62-3.99,1.4-6.05,1.86c0.2-0.36,0.42-0.7,0.63-1.04
						c1.87-3,3.96-5.85,6.04-8.71c4.26-5.88,8.62-11.77,11.66-18.41c2.71-5.9,4.19-12.41,3.59-18.92
						c-0.67-7.24-3.96-13.62-8.98-18.82c-4.64-4.8-10.48-8.32-17.26-8.74c-5.47-0.34-11.17,1.3-15.7,4.36
						c-10.51,7.13-13.14,21.27-10.71,32.99c1.45,7.03,5.84,13.57,5.49,20.91c-0.36,7.48-6.21,11.88-13.52,11.32
						c-3.48-0.27-6.77-1.61-9.93-3.01c-3.77-1.66-7.51-3.4-11.26-5.09c-7.19-3.25-14.31-6.78-21.66-9.65
						c-6.27-2.45-13.25-4.27-19.95-2.65c-5.73,1.39-10.89,4.83-12.83,10.61c-2.2,6.55,0.87,13.5,4.84,18.67
						c4.68,6.1,11.16,10.73,18.51,13c7,2.15,14.53,2.77,21.82,2.3c3.73-0.24,7.4-1.13,11.13-1.27c0.13-0.01,0.26-0.01,0.39-0.01
						l-0.01,0.01c0.12,0.01,0.74,0.08,1.16,0.62c0.27,0.34,0.32,0.7,0.34,0.86c0.01,0.02,0.02,0.03,0.02,0.05
						c0.13,0.27,0.29,0.54,0.45,0.78c-0.31,1.71-1.03,3.39-1.79,4.67c-1.67,2.82-4.18,5.09-6.87,6.92
						c-9.85,6.71-24.96,8.72-29.99,21.02c-2.61,6.39-0.24,12.68,3.93,17.81c4.5,5.55,10.89,10.33,18.25,10.71
						c15.44,0.82,25.15-13.39,31.35-25.47c2.64-5.14,6.84-13.33,13.9-12.08c0.5,0.09,1,0.4,1.48,0.57c0.01,0.02,0.02,0.04,0.03,0.07
						c0.34,0.73,0.58,1.53,0.8,2.31c1.15,4.05,1.13,8.36,1.54,12.52c0.81,8.02,2.34,15.99,4.56,23.74
						c2.04,7.1,4.41,14.63,8.25,20.99c3.55,5.89,10.48,13.97,18.29,12.28C1552.96,93.91,1556.58,87.86,1558.14,81.77z
						 M1513.36,23.55C1513.56,23.62,1513.77,23.95,1513.36,23.55L1513.36,23.55z M1536.45,87.07c-0.42-0.05-1.18-0.43-1.69-0.52
						c0.05,0.08,0.09,0.16,0.13,0.25c0.35,0.67,0.21,0.55-0.17-0.03c-0.12-0.19-0.28-0.21-0.32-0.23c0,0,0.03,0,0.1-0.01
						c0.07-0.01,0.16,0,0.26,0.02c-0.29-0.53-0.59-1.04-0.86-1.58c-0.67-1.34-1.23-2.73-1.79-4.12c-2.92-7.28-5.2-14.82-6.78-22.5
						c-0.79-3.81-1.38-7.67-1.81-11.54c-0.44-3.99-0.54-8.02-1.24-11.97c-1.36-7.68-6.29-14.86-13.13-18.75
						c-6.05-3.43-11.82-1.12-15.69,4.27c-4.03,5.61-6.42,12.22-10.49,17.85c-4.07,5.61-9.43,10.58-16.14,12.74
						c-3.13,1.01-6.62,1.37-9.87,0.75c-1.38-0.26-2.77-0.76-3.99-1.46c-0.11-0.06-0.48-0.3-0.72-0.46
						c-0.01-0.01-0.02-0.01-0.03-0.02l-0.04-0.02c0.06,0.1,0.09,0.17,0.1,0.19c-0.02-0.02-0.05-0.06-0.11-0.15
						c-0.02-0.03-0.04-0.06-0.05-0.08c0,0-0.01,0-0.01-0.01c-0.02-0.01-0.04-0.03-0.07-0.04c0,0,0,0,0,0
						c0.01,0.01,0.03,0.02,0.07,0.05c-0.05-0.1-0.06-0.14-0.03-0.14c-0.14-0.26-0.3-0.55-0.33-0.61c-0.21-0.49-0.38-1.03-0.51-1.55
						c-0.32-1.26-0.37-2.56-0.25-3.86c0.26-2.79,1.44-5.3,3.12-7.52c3.5-4.63,8.65-7.66,13.84-10.05
						c5.94-2.73,12.33-5.08,17.18-9.61c4.32-4.04,6.57-9.39,5.05-14.93c-0.11-0.42-0.25-0.85-0.42-1.27
						c-0.01-0.04-0.03-0.07-0.04-0.11c-0.42-1-1-1.95-1.62-2.82c-0.01-0.01-0.01-0.02-0.02-0.02c-0.31-0.45-0.64-0.88-0.96-1.28
						c-2.36-2.95-5.61-5.96-9.37-6.94c-3.3-0.86-6.56-0.29-9.87,0.2c-3.75,0.55-7.55,0.81-11.34,0.73
						c-6.63-0.14-13.79-0.99-19.77-4.07c-1.11-0.57-2.15-1.37-3.06-2c0.06,0.07,0.1,0.13,0.12,0.15c-0.01-0.02-0.07-0.07-0.16-0.18
						c-0.55-0.38-0.15-0.17-0.03-0.03c0.01,0.01,0.02,0.02,0.03,0.03c0.02,0.01,0.03,0.02,0.04,0.03c-0.08-0.1-0.19-0.22-0.23-0.28
						c0.01,0.01,0.01,0.02,0.01,0.03c-0.01-0.01-0.02-0.03-0.04-0.06c0.01,0,0.01,0.01,0.02,0.02c-0.11-0.2-0.39-0.71-0.43-0.77
						c-1.38-2.51-1.9-5.49-1.58-8.32c0.66-5.98,5.6-10.34,11.13-12.05c6.25-1.93,12.82-0.58,18.79,1.65
						c7.07,2.65,13.89,6.07,20.77,9.18c6.69,3.03,13.49,6.9,20.67,8.62c6.04,1.44,13.65,0.58,16.81-5.54
						c3.13-6.06,1.17-12.98-1.05-18.98c-2.33-6.29-4.11-12.29-3.64-19.07c0.81-11.7,8.07-22.68,20.1-24.98
						c4.74-0.9,10.35-0.45,14.14,2.2c-0.04-0.05-0.07-0.09-0.09-0.11c0.04,0.03,0.11,0.09,0.18,0.14l0,0l0.01,0
						c0.06,0.06,0.12,0.1,0.13,0.12c-0.01,0-0.04-0.02-0.08-0.05c0,0.01,0,0.01,0,0.01c0.01,0.01,0.01,0.01,0.01,0.02
						c0.02,0.02,0.03,0.05,0.06,0.09c0.01,0,0.01,0.01,0.01,0.01c0.02,0.02,0.03,0.05,0.04,0.06c0.01,0.01,0.01,0.01,0.01,0.02
						c0.01,0,0.01,0.01,0.01,0.01c0.04,0.07,0.08,0.14,0.12,0.21c0.64,1.16,1.17,2.32,1.58,3.59c0.96,2.98,1.25,6.11,1.14,9.23
						c-0.52,13.97-9.84,24.91-17.52,35.79c-1.87,2.65-4.04,5.37-5.18,8.43c-1.46,3.93,0.79,7.42,3.49,10.22
						c2.37,2.46,5.2,4.59,8.74,4.65c3.14,0.05,6.18-1.2,9.13-2.13c7.59-2.41,15.16-4.86,22.77-7.22c6.15-1.9,13.06-3.71,19.14-0.82
						c-0.04-0.11-0.09-0.25-0.13-0.38c-0.2-0.19-0.32-0.36-0.25-0.46c0.04-0.06,0.15,0.19,0.25,0.46c0.6,0.58,1.91,1.29,0.58,0.6
						c-0.15-0.08-0.3-0.15-0.45-0.22c0.04,0.12,0.07,0.21,0.08,0.25c0.4,1.3,0.36,2.71,0.09,4.03c-0.59,2.95-2.64,5.5-4.97,7.31
						c-6.07,4.7-14.92,4.97-22.22,6.14c-7.65,1.22-15.71,1.89-23.07,4.43c-5.96,2.06-11.55,6.3-12.96,12.76
						c-1.58,7.18,2.89,14.35,7.05,19.78c2.17,2.83,4.66,5.42,6.8,8.28c2.04,2.73,3.62,5.8,4.8,8.99c2.47,6.7,3.28,13.96,2.29,21.05
						c-0.84,5.99-3.37,12.54-9.15,15.34C1540,86.9,1538.21,87.27,1536.45,87.07z"/>
					<path class="st8" d="M1489.72,0.06c-0.09-0.25-0.2-0.49-0.31-0.74c-0.32-0.69-0.77-1.4-1.31-2.08
						C1488.72-1.88,1489.3-0.93,1489.72,0.06z"/>
					<path class="st8" d="M1490.17,1.44c-0.1-0.43-0.24-0.86-0.42-1.27C1489.92,0.6,1490.06,1.02,1490.17,1.44z"/>
					<path class="st8" d="M1509.17-0.86"/>
					<path class="st8" d="M1506.53-0.39c-1.05-4.75,3.69-9.19,7.81-10.51c2.27-0.72,4.51-1.14,6.71,0.05c1.86,1,3.63,2.87,4.57,4.76
						c4.5,9.06-14.86,14.97-18.8,6.94c-0.96-1.96,1.93-2.11,2.7-0.55c1.34,2.73,7.39,1.02,9.41,0.13c2.61-1.15,5.7-3.67,3.52-6.68
						c-0.78-1.07-1.89-2.31-3.27-2.5c-1.4-0.19-3.36,0.54-4.61,1.1c-2.4,1.07-5.7,4.63-5.08,7.44
						C1509.93,1.82,1506.88,1.19,1506.53-0.39L1506.53-0.39z"/>
				</g>
			</g>
		</g>
	</g>
</g>
</svg>
